<?xml version="1.0" encoding="utf-8"?>
<!-- Generator: Adobe Illustrator 25.2.3, SVG Export Plug-In . SVG Version: 6.00 Build 0)  -->
<svg version="1.1" id="Layer_1" xmlns="http://www.w3.org/2000/svg" xmlns:xlink="http://www.w3.org/1999/xlink" x="0px" y="0px"
	width="72px" height="72px" viewBox="0 0 72 72" style="enable-background:new 0 0 72 72;" xml:space="preserve">
<style type="text/css">
	.st0{fill:#33D3D2;}
	.st1{fill:#D8C1B2;}
	.st2{fill:#C1AD9D;}
	.st3{fill:#F88500;}
	.st4{fill:#CF6100;}
	.st5{fill:#E67600;}
	.st6{fill:#161616;}
	.st7{fill:#773D0F;}
</style>
<g>
	<path className="st0" d="M35.7,69.7l-9.8-12.2c-0.2-0.2,0-0.5,0.3-0.5h7v-7.3c0-0.1,0.1-0.2,0.2-0.2H36h2.6c0.1,0,0.2,0.1,0.2,0.2v7.3
		h7c0.3,0,0.4,0.3,0.3,0.5l-9.8,12.2C36.1,69.8,35.9,69.8,35.7,69.7z"/>
	<g>
		<polygon className="st1" points="26.3,41.5 32.4,46.1 39.7,46.1 45.9,41.5 46.7,39.8 38.8,37 30.4,36.6 26,40.2 		"/>
		<polygon className="st2" points="25.9,41.2 32.4,44 32.4,41.5 39.7,41.5 39.7,44.1 46,41.4 39.6,46.2 32.4,46.2 		"/>
		<polygon className="st3" points="36,38.2 38.4,38.2 45.3,41.4 56.3,44.3 59.2,34 56,23.8 58.3,21.2 57.3,21.1 58.7,19.3 57.4,18.5 
			59.2,17.5 58,16.7 59.6,9 57.3,2 41.8,7.7 36,7.7 30.2,7.7 14.7,2 12.4,9 14,16.7 12.8,17.5 14.6,18.5 13.3,19.3 14.7,21.1 
			13.7,21.2 16,23.8 12.8,34 15.7,44.3 26.7,41.4 33.6,38.2 		"/>
		<g>
			<polygon className="st4" points="26.9,34.2 26.3,41.5 21.3,34.2 			"/>
			<polygon className="st5" points="12.8,34 21.3,34.2 26.3,41.5 15.7,44.3 			"/>
			<polygon className="st5" points="26.9,34.2 33.5,38.2 26.3,41.5 			"/>
		</g>
		<g>
			<polygon className="st4" points="45.1,34.2 45.7,41.5 50.7,34.2 			"/>
			<polygon className="st5" points="59.2,34 50.7,34.2 45.7,41.5 56.3,44.3 			"/>
			<polygon className="st5" points="45.1,34.2 38.5,38.2 45.7,41.5 			"/>
		</g>
		<path className="st6" d="M39,42.2h-5.8c-0.4,0-0.7-0.3-0.7-0.7v-1.6c0-1.1,0.9-2,2-2h3.3c1.1,0,2,0.9,2,2v1.6
			C39.7,41.8,39.4,42.2,39,42.2z"/>
		<g>
			<polygon className="st5" points="14.7,2 30.2,7.7 32.5,15.3 32.8,25.9 23,25.9 25.8,20.9 			"/>
			<polygon className="st4" points="23,25.9 32.8,25.9 31.9,31.3 27.1,29.8 			"/>
			<polygon className="st0" points="31.9,31.3 30.4,28.2 27.1,29.8 			"/>
		</g>
		<g>
			<polygon className="st5" points="57.3,2 41.8,7.7 39.5,15.3 39.2,25.9 49,25.9 46.2,20.9 			"/>
			<polygon className="st4" points="49,25.9 39.2,25.9 40.1,31.3 44.9,29.8 			"/>
			<polygon className="st0" points="40.1,31.3 41.6,28.2 44.9,29.8 			"/>
		</g>
		<polygon className="st7" points="14.7,2 32.5,15.3 25.8,20.9 16,23.8 13.7,21.2 14.7,21.1 13.3,19.3 14.6,18.5 12.8,17.5 14,16.7 
			12.4,9 		"/>
		<polygon className="st7" points="57.3,2 39.5,15.3 46.2,20.9 56,23.8 58.3,21.2 57.3,21.1 58.7,19.3 57.4,18.5 59.2,17.5 58,16.7 
			59.6,9 		"/>
	</g>
</g>
</svg>
