<svg width="501" height="501" viewBox="0 0 501 501" fill="none" xmlns="http://www.w3.org/2000/svg">
<g clip-path="url(#clip0_137_342)">
<path d="M470.652 243.2C465.772 284.57 446.882 332.66 409.162 354.76C352.162 388.15 356.932 439.5 245.692 461.83C229.465 465.163 212.925 466.726 196.362 466.49C188.258 466.339 180.171 465.67 172.152 464.49C101.452 454.17 53.8719 405.02 36.4119 345.69C13.4119 267.69 59.3119 216.59 89.7119 185.82C120.112 155.05 142.382 59.1703 251.552 36.3603C268.211 32.814 285.223 31.1967 302.252 31.5403C341.102 32.5403 383.472 45.2503 412.792 71.8803C414.992 73.8803 417.132 75.9603 419.222 78.0903C460.002 119.92 477.312 186.81 470.652 243.2Z" fill="url(#paint0_linear_137_342)"/>
<g filter="url(#filter0_f_137_342)">
<path d="M470.652 243.2C465.772 284.57 446.882 332.66 409.162 354.76C352.162 388.15 356.932 439.5 245.692 461.83C229.465 465.163 212.925 466.726 196.362 466.49C188.258 466.339 180.171 465.67 172.152 464.49C101.452 454.17 53.8719 405.02 36.4119 345.69C13.4119 267.69 59.3119 216.59 89.7119 185.82C120.112 155.05 142.382 59.1703 251.552 36.3603C268.211 32.814 285.223 31.1967 302.252 31.5403C341.102 32.5403 383.472 45.2503 412.792 71.8803C414.992 73.8803 417.132 75.9603 419.222 78.0903C460.002 119.92 477.312 186.81 470.652 243.2Z" fill="url(#paint1_linear_137_342)"/>
</g>
<path d="M466.322 349.32L458.862 350.98L457.552 353.04L378.282 310.34C376.612 309.5 374.845 308.865 373.022 308.45C370.754 307.912 368.452 307.531 366.132 307.31C363.584 307.056 361.023 306.95 358.462 306.99C355.918 307.013 353.379 307.207 350.862 307.57L319.392 312.17L318.282 311.52L290.452 315.58L291.522 316.24L32.8719 354.04C30.1894 354.411 27.5409 354.996 24.9519 355.79C24.0119 356.08 23.1519 356.39 22.3519 356.72L16.2919 351.49V361.73C16.2471 362.133 16.291 362.54 16.4206 362.923C16.5502 363.307 16.7623 363.657 17.0419 363.95L67.2719 422.26C68.6222 423.661 70.2889 424.717 72.1319 425.34C74.6257 426.264 77.2153 426.904 79.8519 427.25C82.9992 427.683 86.1755 427.871 89.3519 427.81C92.7711 427.76 96.1812 427.446 99.5519 426.87L299.702 392.59L299.552 392.47L458.972 365.17C460.676 364.768 462.316 364.128 463.842 363.27C464.844 362.748 465.65 361.917 466.142 360.9C466.254 360.6 466.308 360.281 466.302 359.96V359.96L466.322 349.32Z" fill="#616161" stroke="#263238" stroke-linecap="round" stroke-linejoin="round"/>
<path d="M362.382 374.44L350.782 376.24C350.299 376.306 349.857 376.545 349.539 376.913C349.221 377.282 349.047 377.753 349.052 378.24V378.37C349.035 378.674 349.089 378.977 349.207 379.257C349.326 379.537 349.507 379.787 349.736 379.986C349.966 380.186 350.238 380.33 350.532 380.409C350.825 380.488 351.133 380.498 351.432 380.44L363.042 378.51C363.531 378.437 363.975 378.184 364.289 377.802C364.603 377.42 364.765 376.934 364.742 376.44C364.747 376.144 364.686 375.851 364.563 375.582C364.441 375.312 364.261 375.073 364.035 374.882C363.809 374.69 363.544 374.552 363.258 374.475C362.972 374.399 362.673 374.387 362.382 374.44Z" fill="#263238" stroke="#263238" stroke-miterlimit="10"/>
<path d="M402.032 367.33L390.432 369.14C389.95 369.206 389.508 369.445 389.189 369.814C388.871 370.182 388.698 370.653 388.702 371.14V371.26C388.686 371.564 388.739 371.867 388.858 372.147C388.976 372.427 389.157 372.677 389.387 372.876C389.616 373.076 389.888 373.221 390.182 373.299C390.476 373.378 390.784 373.389 391.082 373.33L402.682 371.39C403.173 371.319 403.62 371.067 403.936 370.685C404.252 370.302 404.415 369.816 404.392 369.32V369.32C404.395 369.025 404.333 368.733 404.211 368.465C404.088 368.197 403.907 367.959 403.681 367.769C403.456 367.578 403.191 367.44 402.906 367.365C402.621 367.289 402.322 367.277 402.032 367.33Z" fill="#263238" stroke="#263238" stroke-miterlimit="10"/>
<path d="M420.402 364.62L408.772 366.23C408.298 366.299 407.863 366.53 407.54 366.884C407.217 367.237 407.027 367.692 407.002 368.17V368.3C406.981 368.603 407.029 368.907 407.142 369.189C407.256 369.47 407.432 369.722 407.658 369.926C407.883 370.129 408.152 370.278 408.444 370.362C408.736 370.446 409.043 370.463 409.342 370.41L420.982 368.66C421.466 368.597 421.91 368.358 422.231 367.99C422.551 367.622 422.726 367.149 422.722 366.66C422.732 366.365 422.676 366.071 422.559 365.8C422.441 365.529 422.266 365.287 422.044 365.092C421.822 364.897 421.56 364.754 421.276 364.672C420.992 364.591 420.694 364.573 420.402 364.62V364.62Z" fill="#263238" stroke="#263238" stroke-miterlimit="10"/>
<path d="M441.432 355.58L342.862 299.89L42.3921 343.97L44.6121 343.64L109.162 412.25L441.432 355.58Z" fill="white"/>
<path d="M368.822 304.98C368.743 304.938 368.659 304.904 368.572 304.88H368.262H367.892H367.482L366.482 305.02L366.122 305.1C366.047 305.112 365.975 305.139 365.912 305.18C365.902 305.195 365.897 305.212 365.897 305.23C365.897 305.248 365.902 305.265 365.912 305.28C365.912 305.28 365.912 305.36 366.032 305.4C366.111 305.441 366.195 305.471 366.282 305.49L366.602 305.54H366.972L367.382 305.49L368.332 305.35L368.702 305.28L368.912 305.19C368.912 305.19 368.972 305.13 368.912 305.09C368.852 305.05 368.912 305.02 368.782 304.98M441.552 346.64L445.942 345.91L449.832 348.05L445.432 348.79L441.552 346.64ZM452.602 349.07L446.022 345.45L440.242 346.45L446.782 350.08L452.602 349.08M361.902 303.53L362.782 303.4L363.162 303.61L362.282 303.74L361.902 303.53ZM434.772 344.05C434.695 344.019 434.632 343.963 434.592 343.89C434.577 343.866 434.569 343.839 434.569 343.81C434.569 343.782 434.577 343.754 434.592 343.73C434.65 343.672 434.717 343.625 434.792 343.59C434.912 343.546 435.036 343.512 435.162 343.49H435.632C435.795 343.48 435.959 343.48 436.122 343.49C436.274 343.505 436.424 343.532 436.572 343.57C436.689 343.602 436.803 343.646 436.912 343.7C436.988 343.731 437.052 343.788 437.092 343.86C437.107 343.884 437.115 343.912 437.115 343.94C437.115 343.969 437.107 343.996 437.092 344.02C437.034 344.078 436.966 344.126 436.892 344.16C436.773 344.207 436.649 344.237 436.522 344.25C436.366 344.277 436.209 344.294 436.052 344.3C435.889 344.311 435.725 344.311 435.562 344.3C435.41 344.285 435.26 344.258 435.112 344.22C434.993 344.193 434.879 344.149 434.772 344.09M435.262 343.09C435.291 343.083 435.322 343.083 435.352 343.09H435.502H435.892L436.162 343.14C436.357 343.169 436.551 343.209 436.742 343.26C436.989 343.316 437.233 343.386 437.472 343.47C437.728 343.554 437.975 343.661 438.212 343.79C438.324 343.851 438.431 343.921 438.532 344C438.625 344.069 438.712 344.146 438.792 344.23C438.862 344.313 438.922 344.404 438.972 344.5C439.018 344.598 439.045 344.703 439.052 344.81C439.056 344.82 439.059 344.83 439.059 344.84C439.059 344.851 439.056 344.861 439.052 344.87C439.019 344.895 438.982 344.912 438.942 344.92C438.889 344.932 438.834 344.932 438.782 344.92H438.452H438.332H438.222H438.142L438.062 344.83C438.059 344.739 438.035 344.65 437.992 344.57C437.958 344.487 437.907 344.412 437.842 344.35C437.779 344.276 437.709 344.209 437.632 344.15L437.372 343.98C437.192 343.886 437.004 343.806 436.812 343.74C436.628 343.674 436.441 343.617 436.252 343.57L435.822 343.48H435.622H435.542H435.462H435.392H435.342M365.352 302.98L366.242 302.85L366.622 303.06L365.732 303.19L365.352 302.98ZM425.462 338.75L430.222 337.97L431.402 338.62L426.632 339.41L425.462 338.75ZM436.162 342.46C436.187 342.436 436.218 342.418 436.252 342.41H436.402H436.782L437.112 342.46C437.302 342.46 437.572 342.55 437.882 342.63C438.22 342.709 438.554 342.806 438.882 342.92C439.227 343.039 439.561 343.186 439.882 343.36C440.03 343.442 440.174 343.532 440.312 343.63C440.441 343.727 440.561 343.834 440.672 343.95C440.768 344.062 440.848 344.187 440.912 344.32C440.974 344.449 441.011 344.588 441.022 344.73C441.022 344.73 441.022 344.73 441.022 344.79C440.99 344.816 440.952 344.834 440.912 344.84C440.862 344.852 440.811 344.852 440.762 344.84H440.422H440.302C440.269 344.846 440.235 344.846 440.202 344.84H440.112L440.032 344.75C440.023 344.626 439.993 344.504 439.942 344.39C439.884 344.271 439.81 344.16 439.722 344.06C439.629 343.959 439.529 343.866 439.422 343.78L439.042 343.54C438.774 343.4 438.497 343.28 438.212 343.18C437.922 343.08 437.642 343 437.392 342.94L436.772 342.81L436.512 342.76H436.422H436.342H436.282H436.222M427.092 339.92L432.812 338.98L434.002 339.64L428.272 340.58L427.092 339.92ZM428.672 340.8L435.072 339.75L436.272 340.4L429.852 341.46L428.672 340.8M365.562 303.8L369.192 303.33L370.602 304.1L369.962 304.2L368.912 303.62L366.912 303.88H367.232H367.522L367.762 303.94L367.972 304.03C368.085 304.104 368.145 304.164 368.152 304.21C368.152 304.27 368.152 304.32 368.062 304.37C367.95 304.435 367.828 304.482 367.702 304.51C367.511 304.557 367.317 304.594 367.122 304.62L365.872 304.81C365.637 304.848 365.4 304.871 365.162 304.88C364.942 304.895 364.722 304.895 364.502 304.88C364.309 304.872 364.118 304.842 363.932 304.79C363.769 304.753 363.611 304.696 363.462 304.62C363.36 304.575 363.276 304.497 363.222 304.4C363.211 304.366 363.213 304.328 363.228 304.295C363.243 304.262 363.269 304.236 363.302 304.22C363.41 304.144 363.532 304.089 363.662 304.06C363.862 304.004 364.066 303.961 364.272 303.93L364.702 303.87L365.072 304.08L364.552 303.98C364.43 303.993 364.309 304.016 364.192 304.05C364.114 304.064 364.04 304.091 363.972 304.13C363.954 304.14 363.94 304.155 363.931 304.173C363.923 304.19 363.919 304.211 363.922 304.23C363.922 304.23 363.972 304.3 364.042 304.34C364.122 304.381 364.205 304.415 364.292 304.44H364.602H364.972H365.382L366.622 304.25C366.743 304.236 366.864 304.212 366.982 304.18C367.056 304.165 367.126 304.138 367.192 304.1C367.192 304.1 367.252 304.03 367.242 304C367.211 303.948 367.166 303.907 367.112 303.88C367.051 303.849 366.988 303.826 366.922 303.81H366.682H366.382C366.265 303.801 366.148 303.801 366.032 303.81H365.892L365.512 303.6M362.282 300.8L362.802 300.72C363.037 300.683 363.274 300.659 363.512 300.65C363.732 300.65 363.952 300.65 364.162 300.65C364.353 300.669 364.544 300.699 364.732 300.74C364.896 300.777 365.055 300.838 365.202 300.92C365.302 300.963 365.386 301.036 365.442 301.13C365.452 301.165 365.45 301.202 365.435 301.235C365.421 301.268 365.395 301.295 365.362 301.31C365.257 301.386 365.138 301.44 365.012 301.47C364.812 301.527 364.608 301.567 364.402 301.59C363.931 301.656 363.456 301.683 362.982 301.67C362.512 301.67 362.052 301.67 361.602 301.59C361.152 301.51 360.732 301.51 360.312 301.49C359.926 301.454 359.538 301.454 359.152 301.49H359.052L360.202 302.12L359.562 302.22L358.022 301.37L358.562 301.29C359.045 301.217 359.533 301.187 360.022 301.2C360.482 301.2 360.932 301.25 361.372 301.29C361.812 301.33 362.232 301.37 362.672 301.38C363.109 301.405 363.548 301.385 363.982 301.32C364.117 301.304 364.251 301.278 364.382 301.24C364.466 301.228 364.547 301.201 364.622 301.16C364.672 301.16 364.692 301.09 364.682 301.06C364.672 301.03 364.632 300.99 364.552 300.94L364.302 300.85H363.992H363.622L363.212 300.9L362.652 300.98L362.282 300.78M364.462 301.78H364.752C364.983 301.743 365.217 301.719 365.452 301.71C365.682 301.71 365.892 301.71 366.102 301.71C366.29 301.728 366.477 301.758 366.662 301.8C366.824 301.845 366.981 301.905 367.132 301.98C367.272 302.06 367.352 302.13 367.372 302.19C367.387 302.224 367.389 302.262 367.378 302.297C367.367 302.332 367.343 302.361 367.312 302.38C367.2 302.449 367.079 302.499 366.952 302.53C366.751 302.587 366.548 302.63 366.342 302.66H366.182C366.023 302.687 365.863 302.704 365.702 302.71C365.549 302.72 365.395 302.72 365.242 302.71H364.822C364.693 302.698 364.566 302.674 364.442 302.64C364.456 302.661 364.464 302.685 364.464 302.71C364.464 302.735 364.456 302.76 364.442 302.78C364.4 302.832 364.345 302.87 364.282 302.89C364.186 302.934 364.085 302.968 363.982 302.99C363.844 303.025 363.703 303.052 363.562 303.07L363.072 303.14C362.822 303.14 362.592 303.2 362.362 303.22C362.145 303.236 361.928 303.236 361.712 303.22C361.516 303.207 361.322 303.177 361.132 303.13C360.97 303.095 360.815 303.034 360.672 302.95C360.532 302.877 360.452 302.807 360.432 302.74C360.432 302.67 360.432 302.61 360.512 302.55C360.623 302.482 360.745 302.432 360.872 302.4C361.072 302.344 361.276 302.301 361.482 302.27L361.912 302.21L362.282 302.41L361.802 302.48L361.442 302.56C361.368 302.576 361.297 302.603 361.232 302.64C361.182 302.64 361.172 302.7 361.182 302.74C361.209 302.789 361.251 302.827 361.302 302.85C361.38 302.894 361.464 302.924 361.552 302.94C361.653 302.968 361.757 302.985 361.862 302.99H362.252C362.399 302.982 362.546 302.965 362.692 302.94L363.182 302.87L363.562 302.8C363.636 302.782 363.707 302.751 363.772 302.71C363.781 302.694 363.786 302.675 363.786 302.655C363.786 302.636 363.781 302.617 363.772 302.6C363.737 302.554 363.693 302.517 363.642 302.49L363.432 302.37L364.062 302.27L364.302 302.4C364.377 302.442 364.458 302.473 364.542 302.49L364.842 302.54H365.192H365.592L365.882 302.49L366.282 302.42C366.365 302.401 366.446 302.37 366.522 302.33C366.522 302.33 366.582 302.27 366.572 302.23C366.545 302.182 366.502 302.143 366.452 302.12C366.373 302.08 366.289 302.05 366.202 302.03C366.097 302.002 365.99 301.986 365.882 301.98H365.552L365.142 302.03L364.822 302.08L364.452 301.87M365.382 305.61C365.279 305.567 365.192 305.494 365.132 305.4C365.118 305.366 365.117 305.327 365.13 305.292C365.143 305.257 365.168 305.227 365.202 305.21C365.298 305.106 365.418 305.027 365.552 304.98C365.751 304.918 365.955 304.875 366.162 304.85L369.412 304.36C369.653 304.323 369.897 304.299 370.142 304.29H370.802C370.998 304.306 371.192 304.34 371.382 304.39C371.55 304.426 371.712 304.487 371.862 304.57C371.965 304.617 372.053 304.693 372.112 304.79C372.126 304.822 372.128 304.859 372.117 304.892C372.106 304.925 372.083 304.953 372.052 304.97C371.944 305.047 371.821 305.101 371.692 305.13C371.492 305.188 371.288 305.231 371.082 305.26H370.972L370.592 305.06H370.762C370.88 305.047 370.997 305.023 371.112 304.99C371.187 304.979 371.258 304.951 371.322 304.91C371.339 304.9 371.353 304.886 371.362 304.868C371.371 304.85 371.374 304.83 371.372 304.81C371.339 304.756 371.29 304.714 371.232 304.69C371.152 304.649 371.068 304.616 370.982 304.59H370.652H370.252L369.772 304.65L368.352 304.86H368.732C368.845 304.854 368.958 304.854 369.072 304.86L369.372 304.93C369.455 304.959 369.536 304.996 369.612 305.04C369.722 305.1 369.792 305.16 369.802 305.22C369.812 305.28 369.802 305.33 369.702 305.38C369.593 305.443 369.475 305.487 369.352 305.51C369.162 305.566 368.968 305.606 368.772 305.63L367.772 305.78C367.532 305.78 367.292 305.84 367.062 305.85C366.832 305.86 366.612 305.85 366.402 305.85C366.207 305.832 366.013 305.802 365.822 305.76C365.657 305.719 365.499 305.655 365.352 305.57M437.352 342.01H437.302L437.402 341.96H437.552H437.932L438.332 342.03C438.572 342.03 438.902 342.14 439.282 342.23C439.701 342.329 440.115 342.449 440.522 342.59C440.952 342.737 441.37 342.918 441.772 343.13C441.962 343.24 442.142 343.35 442.312 343.47C442.47 343.59 442.617 343.724 442.752 343.87C442.873 344.005 442.974 344.156 443.052 344.32C443.132 344.48 443.183 344.653 443.202 344.83C443.206 344.84 443.209 344.85 443.209 344.86C443.209 344.871 443.206 344.881 443.202 344.89C443.173 344.915 443.139 344.932 443.102 344.94H442.942H442.552H442.432H442.332C442.305 344.946 442.278 344.946 442.252 344.94L442.162 344.86C442.149 344.698 442.109 344.539 442.042 344.39C441.967 344.242 441.873 344.104 441.762 343.98C441.644 343.848 441.513 343.727 441.372 343.62C441.219 343.509 441.059 343.408 440.892 343.32C440.569 343.144 440.235 342.99 439.892 342.86C439.532 342.74 439.182 342.64 438.892 342.56C438.602 342.48 438.292 342.43 438.082 342.39L437.702 342.33H437.622H437.542H437.472M439.312 346.7L446.392 345.52L453.792 349.59L451.082 350.05L451.762 350.42L450.082 350.71L449.402 350.33L446.682 350.79L439.312 346.7M430.312 341.8L437.912 340.54L439.112 341.2L431.502 342.46L430.312 341.8ZM452.582 345.23L436.152 336.23L424.472 335.69C423.592 335.69 422.732 335.58 421.912 335.47C421.092 335.36 420.312 335.23 419.582 335.07C418.905 334.923 418.237 334.736 417.582 334.51C417.03 334.327 416.494 334.096 415.982 333.82L383.552 315.55C383.182 315.37 382.844 315.13 382.552 314.84C382.357 314.637 382.228 314.379 382.182 314.1C382.159 313.835 382.238 313.571 382.402 313.36C382.621 313.083 382.893 312.852 383.202 312.68L388.042 309.78L374.042 302.15C372.37 301.301 370.6 300.66 368.772 300.24C366.499 299.69 364.19 299.302 361.862 299.08C359.303 298.828 356.733 298.718 354.162 298.75C351.602 298.782 349.046 298.979 346.512 299.34L342.802 299.89L441.372 355.58L445.452 354.89C447.713 354.544 449.925 353.93 452.042 353.06C453.405 352.549 454.604 351.678 455.512 350.54C455.811 350.132 455.987 349.646 456.017 349.14C456.047 348.635 455.931 348.131 455.682 347.69C454.884 346.443 453.746 345.451 452.402 344.83" fill="#A558FF"/>
<path d="M365.192 300.85C365.045 300.768 364.886 300.707 364.722 300.67C364.534 300.629 364.343 300.599 364.152 300.58C363.942 300.58 363.722 300.58 363.502 300.58C363.264 300.589 363.027 300.613 362.792 300.65L362.272 300.73L362.642 300.93L363.202 300.85L363.612 300.8H363.982H364.292L364.542 300.89C364.622 300.94 364.662 300.97 364.672 301.01C364.682 301.05 364.672 301.08 364.612 301.11C364.537 301.151 364.456 301.178 364.372 301.19C364.241 301.228 364.107 301.254 363.972 301.27C363.538 301.335 363.099 301.355 362.662 301.33C362.222 301.33 361.802 301.28 361.362 301.24C360.922 301.2 360.472 301.16 360.012 301.15C359.523 301.137 359.035 301.167 358.552 301.24L358.012 301.32L359.552 302.17L360.192 302.07L359.042 301.44H359.142C359.528 301.404 359.916 301.404 360.302 301.44C360.722 301.44 361.152 301.5 361.592 301.54C362.032 301.58 362.502 301.61 362.972 301.62C363.446 301.633 363.921 301.606 364.392 301.54C364.598 301.517 364.802 301.477 365.002 301.42C365.128 301.39 365.247 301.336 365.352 301.26C365.385 301.245 365.411 301.218 365.425 301.185C365.44 301.152 365.442 301.115 365.432 301.08C365.376 300.986 365.292 300.913 365.192 300.87" fill="#263238"/>
<path d="M367.122 301.91C366.972 301.835 366.814 301.775 366.652 301.73C366.468 301.688 366.281 301.658 366.092 301.64C365.882 301.64 365.672 301.64 365.442 301.64C365.208 301.649 364.974 301.673 364.742 301.71H364.452L364.822 301.92L365.142 301.87L365.552 301.82H365.912C366.02 301.826 366.127 301.842 366.232 301.87C366.319 301.89 366.403 301.92 366.482 301.96C366.533 301.983 366.575 302.022 366.602 302.07C366.602 302.07 366.602 302.14 366.552 302.17C366.476 302.21 366.396 302.241 366.312 302.26L365.912 302.33L365.622 302.38H365.222H364.872L364.572 302.33C364.488 302.313 364.407 302.282 364.332 302.24L364.092 302.11L363.462 302.21L363.672 302.33C363.723 302.357 363.768 302.394 363.802 302.44C363.812 302.457 363.817 302.476 363.817 302.495C363.817 302.515 363.812 302.534 363.802 302.55C363.737 302.591 363.666 302.622 363.592 302.64L363.212 302.71L362.722 302.78C362.576 302.805 362.43 302.822 362.282 302.83H361.892C361.787 302.825 361.683 302.808 361.582 302.78C361.494 302.764 361.41 302.734 361.332 302.69C361.281 302.667 361.239 302.629 361.212 302.58C361.212 302.58 361.212 302.51 361.262 302.48C361.327 302.443 361.398 302.416 361.472 302.4L361.832 302.32L362.312 302.25L361.942 302.05L361.512 302.11C361.306 302.141 361.102 302.184 360.902 302.24C360.775 302.272 360.654 302.322 360.542 302.39C360.462 302.45 360.432 302.51 360.462 302.58C360.492 302.65 360.562 302.72 360.702 302.79C360.845 302.874 361 302.935 361.162 302.97C361.352 303.017 361.547 303.047 361.742 303.06C361.958 303.075 362.176 303.075 362.392 303.06C362.622 303.06 362.852 303.06 363.102 302.98H363.552C363.694 302.962 363.834 302.935 363.972 302.9C364.075 302.878 364.176 302.844 364.272 302.8C364.335 302.78 364.391 302.742 364.432 302.69C364.447 302.67 364.455 302.645 364.455 302.62C364.455 302.595 364.447 302.571 364.432 302.55C364.557 302.584 364.684 302.608 364.812 302.62H365.232C365.385 302.63 365.539 302.63 365.692 302.62C365.853 302.614 366.013 302.597 366.172 302.57H366.332C366.538 302.54 366.742 302.497 366.942 302.44C367.069 302.409 367.191 302.359 367.302 302.29C367.334 302.271 367.357 302.242 367.368 302.207C367.379 302.172 367.377 302.134 367.362 302.1C367.362 302.04 367.282 301.97 367.122 301.89" fill="#263238"/>
<path d="M363.162 303.6L362.782 303.39L361.902 303.52L362.282 303.73L363.162 303.6ZM366.622 303.08L366.242 302.87L365.352 303L365.732 303.21L366.622 303.08Z" fill="#263238"/>
<path d="M370.552 303.83L369.142 303.06L365.512 303.53L365.892 303.74H366.032C366.149 303.731 366.266 303.731 366.382 303.74H366.682H366.922C366.988 303.756 367.052 303.779 367.112 303.81C367.166 303.837 367.211 303.879 367.242 303.93C367.242 303.93 367.242 303.99 367.192 304.03C367.127 304.068 367.056 304.095 366.982 304.11C366.864 304.142 366.744 304.166 366.622 304.18L365.382 304.37H364.972H364.552H364.242C364.156 304.345 364.072 304.311 363.992 304.27C363.922 304.27 363.882 304.2 363.872 304.16C363.87 304.141 363.873 304.12 363.882 304.103C363.891 304.085 363.905 304.07 363.922 304.06C363.99 304.021 364.065 303.994 364.142 303.98C364.278 303.967 364.416 303.967 364.552 303.98L365.022 303.91L364.652 303.7L364.222 303.76C364.016 303.791 363.812 303.834 363.612 303.89C363.483 303.919 363.36 303.974 363.252 304.05C363.219 304.066 363.193 304.092 363.178 304.125C363.164 304.158 363.162 304.196 363.172 304.23C363.227 304.327 363.311 304.405 363.412 304.45C363.561 304.526 363.719 304.584 363.882 304.62C364.068 304.672 364.259 304.702 364.452 304.71C364.672 304.725 364.892 304.725 365.112 304.71C365.35 304.701 365.587 304.678 365.822 304.64L367.072 304.45C367.267 304.424 367.461 304.387 367.652 304.34C367.779 304.312 367.9 304.265 368.012 304.2C368.082 304.15 368.122 304.1 368.102 304.04C368.082 303.98 368.032 303.93 367.922 303.86L367.712 303.77L367.472 303.71H367.182H366.862L368.862 303.45L369.912 304.03L370.552 303.93" fill="#263238"/>
<path d="M366.022 305.4C365.949 305.36 365.909 305.32 365.902 305.28C365.892 305.265 365.887 305.248 365.887 305.23C365.887 305.212 365.892 305.195 365.902 305.18C365.966 305.139 366.037 305.112 366.112 305.1L366.552 304.98L367.552 304.84H367.962H368.332H368.642C368.729 304.864 368.813 304.897 368.892 304.94C368.972 304.94 369.012 305.02 369.022 305.05C369.032 305.08 369.022 305.12 369.022 305.15L368.812 305.24L368.442 305.31L367.492 305.45L367.082 305.5H366.552L366.232 305.45C366.145 305.431 366.061 305.401 365.982 305.36M371.832 304.48C371.682 304.396 371.52 304.336 371.352 304.3C371.162 304.25 370.968 304.216 370.772 304.2H370.112C369.868 304.209 369.624 304.233 369.382 304.27L366.132 304.76C365.925 304.785 365.721 304.828 365.522 304.89C365.392 304.915 365.268 304.97 365.162 305.05C365.129 305.067 365.103 305.096 365.09 305.132C365.077 305.167 365.078 305.206 365.092 305.24C365.152 305.334 365.24 305.407 365.342 305.45C365.489 305.535 365.648 305.599 365.812 305.64C366.003 305.682 366.197 305.712 366.392 305.73C366.602 305.73 366.822 305.73 367.052 305.73C367.282 305.73 367.522 305.73 367.762 305.66L368.762 305.51C368.958 305.486 369.152 305.446 369.342 305.39C369.465 305.367 369.584 305.323 369.692 305.26C369.772 305.21 369.812 305.15 369.792 305.1C369.772 305.05 369.712 304.98 369.602 304.92C369.526 304.876 369.446 304.839 369.362 304.81L369.062 304.74C368.949 304.734 368.835 304.734 368.722 304.74H368.342L369.762 304.53L370.242 304.47H370.642H370.972C371.058 304.496 371.142 304.529 371.222 304.57C371.281 304.594 371.33 304.636 371.362 304.69C371.365 304.71 371.361 304.73 371.352 304.748C371.344 304.766 371.33 304.78 371.312 304.79C371.249 304.831 371.177 304.859 371.102 304.87C370.988 304.903 370.871 304.927 370.752 304.94H370.582L370.962 305.14H371.072C371.278 305.111 371.482 305.068 371.682 305.01C371.812 304.981 371.934 304.927 372.042 304.85C372.073 304.833 372.096 304.805 372.107 304.772C372.118 304.739 372.117 304.702 372.102 304.67C372.043 304.573 371.956 304.496 371.852 304.45" fill="#263238"/>
<path d="M431.402 338.64L430.222 337.99L425.462 338.77L426.632 339.43L431.402 338.64Z" fill="#263238"/>
<path d="M433.942 339.36L432.752 338.71L427.032 339.65L428.212 340.3L433.942 339.36Z" fill="#263238"/>
<path d="M436.212 340.12L435.012 339.47L428.612 340.52L429.792 341.18L436.212 340.12Z" fill="#263238"/>
<path d="M438.992 340.8L437.792 340.14L430.192 341.4L431.382 342.06L438.992 340.8Z" fill="#263238"/>
<path d="M440.242 346.42L446.022 345.42L452.602 349.04L446.782 350.04L440.242 346.41M453.662 349.18L446.262 345.11L439.182 346.29L446.552 350.38L449.272 349.92L449.012 349.78L450.692 349.49L450.952 349.64L453.662 349.18" fill="#263238"/>
<path d="M449.832 348.05L445.942 345.91L441.552 346.64L445.432 348.79L449.832 348.05Z" fill="#263238"/>
<path d="M451.632 350.02L450.952 349.65L450.692 349.5L449.012 349.79L449.272 349.93L449.952 350.31L451.632 350.02Z" fill="#263238"/>
<path d="M438.162 343.49C437.925 343.362 437.678 343.254 437.422 343.17C437.183 343.086 436.939 343.016 436.692 342.96C436.501 342.909 436.307 342.869 436.112 342.84L435.842 342.79H435.452H435.302C435.272 342.783 435.241 342.783 435.212 342.79V342.79H435.262H435.332H435.412H435.492H435.692L436.122 342.88C436.311 342.927 436.498 342.984 436.682 343.05C436.875 343.116 437.062 343.196 437.242 343.29L437.502 343.46C437.579 343.519 437.649 343.586 437.712 343.66C437.777 343.722 437.828 343.797 437.862 343.88C437.905 343.96 437.929 344.049 437.932 344.14L438.012 344.23H438.092H438.202H438.322H438.652C438.705 344.242 438.759 344.242 438.812 344.23C438.852 344.222 438.889 344.205 438.922 344.18C438.926 344.171 438.929 344.161 438.929 344.15C438.929 344.14 438.926 344.13 438.922 344.12C438.915 344.013 438.888 343.908 438.842 343.81C438.793 343.714 438.732 343.623 438.662 343.54C438.582 343.456 438.495 343.379 438.402 343.31C438.302 343.231 438.194 343.161 438.082 343.1" fill="#263238"/>
<path d="M439.852 343.2C439.531 343.026 439.197 342.879 438.852 342.76C438.524 342.646 438.19 342.549 437.852 342.47C437.542 342.39 437.272 342.34 437.082 342.3L436.752 342.25H436.372H436.222C436.188 342.258 436.157 342.276 436.132 342.3V342.3H436.192H436.252H436.332H436.422L436.682 342.35L437.302 342.48C437.552 342.54 437.832 342.62 438.122 342.72C438.407 342.82 438.684 342.94 438.952 343.08L439.332 343.32C439.439 343.406 439.539 343.499 439.632 343.6C439.72 343.7 439.794 343.811 439.852 343.93C439.903 344.044 439.933 344.166 439.942 344.29L440.022 344.38H440.112C440.145 344.386 440.179 344.386 440.212 344.38H440.332H440.672C440.721 344.392 440.773 344.392 440.822 344.38C440.862 344.374 440.9 344.356 440.932 344.33C440.932 344.33 440.932 344.33 440.932 344.27C440.921 344.128 440.884 343.989 440.822 343.86C440.759 343.727 440.678 343.602 440.582 343.49C440.471 343.374 440.351 343.266 440.222 343.17C440.084 343.072 439.94 342.982 439.792 342.9" fill="#263238"/>
<path d="M441.752 342.87C441.35 342.658 440.932 342.477 440.502 342.33C440.095 342.189 439.681 342.069 439.262 341.97C438.882 341.88 438.552 341.81 438.312 341.77L437.912 341.7H437.552H437.402L437.302 341.75H437.352H437.422H437.502H437.582L437.962 341.81C438.172 341.81 438.452 341.9 438.772 341.98C439.092 342.06 439.442 342.16 439.772 342.28C440.115 342.41 440.449 342.564 440.772 342.74C440.939 342.828 441.099 342.929 441.252 343.04C441.393 343.147 441.524 343.268 441.642 343.4C441.753 343.524 441.847 343.662 441.922 343.81C441.989 343.959 442.029 344.118 442.042 344.28L442.132 344.36C442.158 344.366 442.185 344.366 442.212 344.36H442.312H442.432H442.772H442.932C442.969 344.352 443.003 344.335 443.032 344.31C443.036 344.301 443.039 344.291 443.039 344.28C443.039 344.27 443.036 344.26 443.032 344.25C443.013 344.073 442.962 343.9 442.882 343.74C442.804 343.576 442.703 343.425 442.582 343.29C442.447 343.144 442.3 343.01 442.142 342.89C441.972 342.77 441.792 342.66 441.602 342.55" fill="#263238"/>
<path d="M436.922 343.68C436.813 343.626 436.699 343.582 436.582 343.55C436.434 343.512 436.284 343.485 436.132 343.47C435.969 343.46 435.805 343.46 435.642 343.47H435.172C435.046 343.492 434.922 343.526 434.802 343.57C434.727 343.605 434.66 343.652 434.602 343.71C434.587 343.734 434.579 343.762 434.579 343.79C434.579 343.819 434.587 343.846 434.602 343.87C434.642 343.943 434.705 343.999 434.782 344.03C434.889 344.089 435.003 344.133 435.122 344.16C435.269 344.198 435.42 344.225 435.572 344.24C435.735 344.25 435.899 344.25 436.062 344.24C436.219 344.234 436.376 344.217 436.532 344.19C436.659 344.177 436.783 344.147 436.902 344.1C436.976 344.066 437.044 344.018 437.102 343.96C437.117 343.936 437.125 343.909 437.125 343.88C437.125 343.852 437.117 343.824 437.102 343.8C437.062 343.728 436.998 343.671 436.922 343.64" fill="#263238"/>
<path d="M436.032 335.88L452.462 344.88C453.806 345.501 454.944 346.493 455.742 347.74C455.991 348.181 456.107 348.685 456.077 349.19C456.047 349.696 455.872 350.182 455.572 350.59C454.664 351.728 453.465 352.599 452.102 353.11C449.986 353.979 447.773 354.594 445.512 354.94L109.162 412.25L103.162 413.25C100.296 413.733 97.3979 414.001 94.4919 414.05C91.7836 414.1 89.0754 413.94 86.3919 413.57C84.151 413.279 81.9482 412.746 79.8219 411.98C78.2414 411.448 76.8068 410.554 75.6319 409.37L74.5519 408.13L26.7519 353.89L25.8919 352.89C25.5682 352.574 25.3453 352.168 25.251 351.725C25.1567 351.282 25.1953 350.821 25.3619 350.4C25.8942 349.37 26.7279 348.525 27.7519 347.98C29.258 347.083 30.8705 346.377 32.5519 345.88C34.7739 345.209 37.0438 344.707 39.3419 344.38L42.3919 343.93L342.862 299.86L346.572 299.31C349.107 298.949 351.662 298.752 354.222 298.72C356.793 298.688 359.363 298.798 361.922 299.05C364.25 299.272 366.559 299.66 368.832 300.21C370.66 300.63 372.43 301.271 374.102 302.12L388.102 309.75L383.262 312.65C382.953 312.822 382.681 313.053 382.462 313.33C382.298 313.541 382.22 313.805 382.242 314.07C382.288 314.349 382.417 314.606 382.612 314.81C382.904 315.1 383.242 315.34 383.612 315.52L415.862 333.44C416.374 333.716 416.91 333.947 417.462 334.13C418.117 334.356 418.785 334.543 419.462 334.69C420.192 334.85 420.972 334.99 421.792 335.09C422.612 335.19 423.472 335.27 424.352 335.31L436.032 335.85M462.552 345.26L378.232 299.84C376.562 299 374.795 298.365 372.972 297.95C370.704 297.412 368.402 297.031 366.082 296.81C363.533 296.558 360.973 296.448 358.412 296.48C355.868 296.511 353.33 296.709 350.812 297.07L319.342 301.67L318.232 301.01L290.402 305.07L291.472 305.74L32.8719 343.54C30.1906 343.913 27.5425 344.495 24.9519 345.28C22.9794 345.86 21.0853 346.68 19.3119 347.72C18.109 348.354 17.1259 349.337 16.4919 350.54C16.2835 351.025 16.2245 351.561 16.3225 352.079C16.4205 352.598 16.671 353.075 17.0419 353.45L67.2719 411.76C68.6249 413.158 70.2907 414.213 72.1319 414.84C74.6262 415.76 77.2157 416.397 79.8519 416.74C82.9985 417.182 86.1751 417.372 89.3519 417.31C92.7708 417.255 96.1805 416.941 99.5519 416.37L299.702 382.09L299.552 381.98L458.972 354.68C460.675 354.273 462.313 353.634 463.842 352.78C464.844 352.258 465.65 351.427 466.142 350.41C466.304 349.984 466.355 349.524 466.29 349.072C466.226 348.621 466.047 348.194 465.772 347.83C464.935 346.74 463.852 345.863 462.612 345.27" fill="#263238"/>
<path d="M436.032 335.88L452.462 344.88C453.806 345.501 454.944 346.493 455.742 347.74C455.991 348.181 456.107 348.685 456.077 349.19C456.047 349.696 455.872 350.182 455.572 350.59C454.664 351.728 453.465 352.599 452.102 353.11C449.986 353.979 447.773 354.594 445.512 354.94L109.162 412.25L103.162 413.25C100.296 413.733 97.3979 414.001 94.4919 414.05C91.7836 414.1 89.0754 413.94 86.3919 413.57C84.151 413.279 81.9482 412.746 79.8219 411.98C78.2414 411.448 76.8068 410.554 75.6319 409.37L74.5519 408.13L26.7519 353.89L25.8919 352.89C25.5682 352.574 25.3453 352.168 25.251 351.725C25.1567 351.282 25.1953 350.821 25.3619 350.4C25.8942 349.37 26.7279 348.525 27.7519 347.98C29.258 347.083 30.8705 346.377 32.5519 345.88C34.7739 345.209 37.0438 344.707 39.3419 344.38L42.3919 343.93L342.862 299.86L346.572 299.31C349.107 298.949 351.662 298.752 354.222 298.72C356.793 298.688 359.363 298.798 361.922 299.05C364.25 299.272 366.559 299.66 368.832 300.21C370.66 300.63 372.43 301.271 374.102 302.12L388.102 309.75L383.262 312.65C382.953 312.822 382.681 313.053 382.462 313.33C382.298 313.541 382.22 313.805 382.242 314.07C382.288 314.349 382.417 314.606 382.612 314.81C382.904 315.1 383.242 315.34 383.612 315.52L415.862 333.44C416.374 333.716 416.91 333.947 417.462 334.13C418.117 334.356 418.785 334.543 419.462 334.69C420.192 334.85 420.972 334.99 421.792 335.09C422.612 335.19 423.472 335.27 424.352 335.31L436.032 335.85M462.552 345.26L378.232 299.84C376.562 299 374.795 298.365 372.972 297.95C370.704 297.412 368.402 297.031 366.082 296.81C363.533 296.558 360.973 296.448 358.412 296.48C355.868 296.511 353.33 296.709 350.812 297.07L319.342 301.67L318.232 301.01L290.402 305.07L291.472 305.74L32.8719 343.54C30.1906 343.913 27.5425 344.495 24.9519 345.28C22.9794 345.86 21.0853 346.68 19.3119 347.72C18.109 348.354 17.1259 349.337 16.4919 350.54C16.2835 351.025 16.2245 351.561 16.3225 352.079C16.4205 352.598 16.671 353.075 17.0419 353.45L67.2719 411.76C68.6249 413.158 70.2907 414.213 72.1319 414.84C74.6262 415.76 77.2157 416.397 79.8519 416.74C82.9985 417.182 86.1751 417.372 89.3519 417.31C92.7708 417.255 96.1805 416.941 99.5519 416.37L299.702 382.09L299.552 381.98L458.972 354.68C460.675 354.273 462.313 353.634 463.842 352.78C464.844 352.258 465.65 351.427 466.142 350.41C466.304 349.984 466.355 349.524 466.29 349.072C466.226 348.621 466.047 348.194 465.772 347.83C464.935 346.74 463.852 345.863 462.612 345.27" stroke="#263238" stroke-miterlimit="10"/>
<path d="M109.162 412.25L44.6118 343.64L42.3918 343.96L39.3418 344.41C37.0436 344.737 34.7737 345.239 32.5518 345.91C30.8704 346.407 29.2578 347.113 27.7518 348.01C26.7315 348.557 25.9015 349.401 25.3718 350.43C25.2051 350.851 25.1666 351.312 25.2608 351.755C25.3551 352.198 25.5781 352.603 25.9018 352.92L26.7618 353.92L74.5518 408.13L75.6218 409.35C76.7974 410.543 78.2357 411.443 79.8218 411.98C81.9598 412.759 84.1762 413.302 86.4318 413.6C89.1153 413.97 91.8234 414.13 94.5318 414.08C97.4377 414.031 100.336 413.763 103.202 413.28L109.202 412.28" fill="#A558FF"/>
<path d="M289.892 111.98C289.892 111.98 298.482 117.7 298.952 125.81" stroke="#263238" stroke-linecap="round" stroke-linejoin="round"/>
<path d="M299.432 115.32C299.432 115.32 304.202 119.14 304.682 123.91" stroke="#263238" stroke-linecap="round" stroke-linejoin="round"/>
<path d="M204.991 105.3C204.991 105.3 196.411 113.41 194.501 120.09" stroke="#263238" stroke-linecap="round" stroke-linejoin="round"/>
<path d="M195.462 108.64C195.462 108.64 190.692 114.84 190.692 119.14" stroke="#263238" stroke-linecap="round" stroke-linejoin="round"/>
<path d="M292.752 190.68L285.602 207.37" stroke="#263238" stroke-linecap="round" stroke-linejoin="round"/>
<path d="M292.282 199.74L286.552 215" stroke="#263238" stroke-linecap="round" stroke-linejoin="round"/>
<path d="M188.782 177.8L189.262 191.63" stroke="#263238" stroke-linecap="round" stroke-linejoin="round"/>
<path d="M184.962 183.52L185.442 194.02" stroke="#263238" stroke-linecap="round" stroke-linejoin="round"/>
<path d="M198.791 123.32C198.791 123.32 198.351 132.59 199.991 137.23C201.063 140.577 201.718 144.043 201.941 147.55L197.451 160.12C197.451 160.12 193.261 161.47 193.451 162.81C193.641 164.15 193.601 165.36 193.601 165.36C193.357 165.44 193.148 165.602 193.011 165.82C192.874 166.037 192.818 166.296 192.851 166.55C193.001 167.45 193.301 168.65 193.301 168.65C193.301 168.65 190.461 171.79 190.761 172.84C191.061 173.89 194.201 177.33 194.201 177.33C194.201 177.33 195.391 176.33 201.531 177.48C207.671 178.63 209.161 180.32 209.161 180.32C209.161 180.32 213.161 180.47 213.651 177.63C213.917 176.304 213.866 174.933 213.501 173.63C213.501 173.03 214.501 171.83 214.691 169.74C214.881 167.65 214.391 165.85 214.541 164.35C214.691 162.85 215.741 156.12 215.741 156.12C215.741 156.12 202.741 126.2 202.741 125.75C202.741 125.3 200.441 122.27 198.791 123.32Z" fill="#6010B1" stroke="#263238" stroke-linecap="round" stroke-linejoin="round"/>
<path d="M203.602 136.69L214.502 164.31L215.702 156.08L203.602 136.69Z" fill="#263238" stroke="#263238" stroke-linecap="round" stroke-linejoin="round"/>
<path d="M199.632 162.5C199.632 162.5 207.822 163.5 211.542 168.21" stroke="#263238" stroke-linecap="round" stroke-linejoin="round"/>
<path d="M194.422 170.69C194.422 170.69 200.872 167.22 209.802 170.94" stroke="#263238" stroke-linecap="round" stroke-linejoin="round"/>
<path d="M214.952 199.77C214.952 199.77 201.332 225.69 195.472 247.88C189.612 270.07 190.652 282.01 190.652 283.88C190.652 285.75 194.212 329.52 194.212 329.52C194.212 329.52 192.542 333.52 194.002 336.22C194.852 337.787 195.623 339.396 196.312 341.04C196.312 341.04 186.892 350.46 184.162 352.35C181.432 354.24 177.672 357.58 181.442 360.93C185.212 364.28 194.212 361.93 197.352 360.72C200.492 359.51 205.942 354.23 205.942 354.23C205.942 354.23 212.432 351.3 214.312 349C216.192 346.7 215.572 344.18 215.572 343.13C215.937 341.148 216.428 339.19 217.042 337.27L216.622 331.41C216.412 328.48 217.622 308.17 218.082 306.07C218.542 303.97 221.022 272.98 221.022 272.98C221.022 272.98 230.652 245.98 231.692 244.5C232.732 243.02 238.812 235.29 238.812 235.29C238.812 235.29 243.812 243.04 244.472 246.18C245.132 249.32 248.862 280.1 249.912 283.45C250.962 286.8 269.382 331.82 270.642 333.45C271.559 334.731 272.397 336.067 273.152 337.45C273.152 337.45 271.692 342.27 272.942 343.52C273.663 344.198 274.173 345.07 274.412 346.03C274.412 346.03 268.342 359.65 268.342 362.37C268.342 365.09 269.342 366.37 275.872 366.37C282.402 366.37 285.932 360.92 286.972 356.94C288.012 352.96 291.582 346.26 291.972 344.38C292.362 342.5 292.972 343.12 291.552 339.15C290.132 335.18 289.662 333.49 289.872 332.44C289.955 331.581 289.81 330.715 289.452 329.93C289.252 329.09 276.262 275.28 276.262 275.28L275.262 253.72C275.262 253.72 277.142 214.56 276.722 209.33C276.645 207.13 276.353 204.943 275.852 202.8C275.852 202.8 241.292 204.92 229.852 202.41C218.412 199.9 214.952 199.77 214.952 199.77Z" fill="#263238" stroke="#263238" stroke-linecap="round" stroke-linejoin="round"/>
<path d="M216.001 192.29C216.001 192.29 214.501 198.72 215.001 199.77C215.501 200.82 224.281 206.95 240.741 209.04C257.201 211.13 270.961 207.7 274.551 206.04C278.141 204.38 278.141 199.76 278.141 199.76C278.141 199.76 249.561 206.64 235.651 201.55C221.741 196.46 216.001 192.29 216.001 192.29Z" fill="#616161" stroke="#263238" stroke-linecap="round" stroke-linejoin="round"/>
<path d="M207.202 92.4203C207.202 92.4203 204.472 79.2503 215.202 70.2603C225.932 61.2703 236.202 63.5903 239.342 65.3503C242.482 67.1103 250.782 70.8503 252.932 77.3003C255.082 83.7503 254.112 92.3503 255.092 94.7003C256.072 97.0503 258.612 96.8503 258.802 98.0303L259.002 99.2003C259.002 99.2003 280.552 110.34 284.452 117.77C288.352 125.2 281.512 182.69 281.122 190.91C280.732 199.13 281.902 200.68 275.842 202.83C269.782 204.98 246.712 207.92 229.842 202.44C212.972 196.96 214.002 190.71 214.392 188.17C214.782 185.63 220.852 172.33 220.462 170.57C220.072 168.81 216.152 157.08 216.152 157.08C216.152 157.08 201.882 134.2 199.732 128.14C197.582 122.08 199.732 122.08 201.492 119.34C203.252 116.6 218.492 98.2203 218.492 98.2203L214.582 91.5703L207.202 92.4203Z" fill="#6010B1" stroke="#263238" stroke-linecap="round" stroke-linejoin="round"/>
<path d="M255.082 187.69C257.496 188.368 259.946 188.909 262.422 189.31" stroke="#263238" stroke-linecap="round" stroke-linejoin="round"/>
<path d="M223.212 173.17C232.112 178.728 241.621 183.245 251.552 186.63" stroke="#263238" stroke-linecap="round" stroke-linejoin="round"/>
<path d="M226.682 179.13C230.287 181.402 234.016 183.472 237.852 185.33" stroke="#263238" stroke-linecap="round" stroke-linejoin="round"/>
<path d="M244.802 122.04C244.802 122.04 254.732 115.04 256.962 104.42" stroke="#263238" stroke-linecap="round" stroke-linejoin="round"/>
<path d="M237.602 126.76C236.834 129.933 236.749 133.232 237.352 136.44C238.352 141.9 238.102 147.86 238.352 149.84" stroke="#263238" stroke-linecap="round" stroke-linejoin="round"/>
<path d="M236.862 131.72L235.122 141.15H239.842L236.862 131.72Z" fill="white" stroke="#263238" stroke-linecap="round" stroke-linejoin="round"/>
<path d="M213.462 91.4402C213.462 91.4402 206.232 89.8802 207.202 92.4402C208.172 95.0002 214.442 96.6802 214.442 96.6802L213.462 91.4402Z" fill="#263238" stroke="#263238" stroke-linecap="round" stroke-linejoin="round"/>
<path d="M213.462 91.4402C213.462 91.4402 215.032 100.76 216.992 105.44C218.952 110.12 221.872 114.82 225.782 117.95C229.692 121.08 232.432 125.77 235.372 125.58C238.312 125.39 242.372 121.67 243.582 119.32C244.792 116.97 247.492 106.61 247.492 106.61C247.492 106.61 248.862 105.24 237.322 96.0502C234.025 93.3896 230.126 91.5781 225.966 90.7744C221.806 89.9707 217.513 90.1993 213.462 91.4402V91.4402Z" fill="white"/>
<path d="M237.322 96.0703C234.027 93.4064 230.128 91.5912 225.968 90.784C221.809 89.9768 217.514 90.2022 213.462 91.4403C213.462 91.4403 215.032 100.76 216.992 105.44C217.052 105.6 217.132 105.76 217.202 105.93C219.152 104 222.452 101.66 226.662 102.4C233.432 103.57 239.202 104.18 247.222 107.62L247.492 106.62C247.492 106.62 248.862 105.26 237.322 96.0703Z" fill="#8A8A8A"/>
<path d="M222.772 104.05C223.092 105.05 222.772 106.05 222.122 106.25C221.472 106.45 220.632 105.85 220.302 104.86C219.972 103.87 220.302 102.86 220.942 102.66C221.582 102.46 222.442 103.06 222.772 104.05Z" fill="#263238"/>
<path d="M234.461 102.4C234.791 103.4 234.461 104.4 233.821 104.6C233.181 104.8 232.321 104.2 231.991 103.21C231.661 102.22 231.991 101.21 232.641 101.01C233.291 100.81 234.141 101.4 234.461 102.4Z" fill="#263238"/>
<path d="M228.552 101.15C228.552 101.15 231.552 97.2504 234.462 96.6604" stroke="#263238" stroke-linecap="round" stroke-linejoin="round"/>
<path d="M217.642 100.44C218.614 99.9145 219.725 99.7007 220.823 99.8277C221.922 99.9547 222.955 100.416 223.782 101.15" stroke="#263238" stroke-linecap="round" stroke-linejoin="round"/>
<path d="M225.981 105.85C225.981 105.85 226.981 115.05 228.391 115.25C229.801 115.45 233.481 112.12 233.481 112.12" stroke="#263238" stroke-linecap="round" stroke-linejoin="round"/>
<path d="M231.788 117.66C233.557 117.391 235.147 116.765 236.327 115.872C237.507 114.979 238.216 113.866 238.351 112.695" stroke="#263238" stroke-linecap="round" stroke-linejoin="round"/>
<path d="M213.462 91.4402C213.462 91.4402 215.032 100.76 216.992 105.44C218.952 110.12 221.872 114.82 225.782 117.95C229.692 121.08 232.432 125.77 235.372 125.58C238.312 125.39 242.372 121.67 243.582 119.32C244.792 116.97 247.492 106.61 247.492 106.61C247.492 106.61 248.862 105.24 237.322 96.0502C234.025 93.3896 230.126 91.5781 225.966 90.7744C221.806 89.9707 217.513 90.1993 213.462 91.4402V91.4402Z" stroke="#263238" stroke-linecap="round" stroke-linejoin="round"/>
<path d="M194.162 177.33L194.462 201.41L204.462 200.52L209.102 180.32C209.102 180.32 202.242 173.44 194.162 177.33Z" fill="white" stroke="#263238" stroke-linecap="round" stroke-linejoin="round"/>
<path d="M220.212 226.36L196.472 226.59" stroke="#263238" stroke-width="5" stroke-linecap="round" stroke-linejoin="round"/>
<path d="M219.102 217.4L219.172 215.08H215.412C213.582 214.96 211.962 219.81 211.792 225.91C211.622 232.01 212.982 237.07 214.792 237.2H218.552V235.14C219.606 232.333 220.145 229.359 220.142 226.36C220.324 223.336 219.972 220.303 219.102 217.4Z" fill="#616161" stroke="#263238" stroke-linecap="round" stroke-linejoin="round"/>
<path d="M222.191 226.36C222.021 232.47 220.401 237.36 218.571 237.2C216.741 237.04 215.381 232.02 215.571 225.91C215.761 219.8 217.361 214.91 219.201 215.08C221.041 215.25 222.351 220.25 222.191 226.36Z" fill="#828282" stroke="#263238" stroke-linecap="round" stroke-linejoin="round"/>
<path d="M210.022 200.07L209.872 214.28C209.872 214.28 212.562 219.67 212.412 222.36C212.262 225.05 212.412 232.83 211.062 233.58C210.068 234.011 208.952 234.064 207.922 233.73L206.432 232.98C206.432 232.98 201.342 233.73 198.652 233.13C195.962 232.53 192.812 230.89 192.362 228.34C191.912 225.79 193.112 219.52 193.112 219.52C193.112 219.52 186.982 204.11 188.322 202.01C189.662 199.91 198.652 195.88 210.022 200.07Z" fill="#6010B1" stroke="#263238" stroke-linecap="round" stroke-linejoin="round"/>
<path d="M220.621 329.49L218.551 362.19C218.537 362.424 218.568 362.659 218.644 362.88C218.72 363.102 218.839 363.306 218.994 363.482C219.149 363.658 219.337 363.801 219.548 363.904C219.759 364.006 219.988 364.066 220.221 364.08V364.08C220.455 364.097 220.689 364.066 220.911 363.992C221.132 363.917 221.337 363.799 221.513 363.644C221.688 363.49 221.832 363.302 221.935 363.092C222.037 362.882 222.097 362.654 222.111 362.42L224.221 329.27L220.621 329.49Z" fill="#263238" stroke="#263238" stroke-linecap="round" stroke-linejoin="round"/>
<path d="M488.671 413.69C462.991 420.44 406.381 417.52 389.921 405.69C387.121 403.69 385.681 401.53 385.631 399.32C385.551 395.79 386.921 392.67 389.841 389.79C392.332 387.452 395.194 385.546 398.311 384.15C404.812 387.387 411.524 390.18 418.401 392.51C434.231 397.9 448.021 399.94 459.401 398.57C470.781 397.2 477.401 392.77 477.151 386.72C476.811 378.89 465.151 372.59 450.031 372.07C438.367 371.687 426.695 372.599 415.231 374.79C409.424 375.895 403.744 377.59 398.281 379.85C369.831 368.33 334.761 335.33 328.121 326.23C320.611 315.93 297.611 288.33 280.031 271.44C280.277 270.642 280.292 269.79 280.075 268.983C279.857 268.176 279.416 267.447 278.801 266.88C275.959 264.213 272.982 261.693 269.881 259.33C266.881 257.1 263.771 254.83 260.641 252.59C259.965 252.109 259.166 251.827 258.337 251.777C257.507 251.728 256.681 251.913 255.951 252.31C254.618 251.364 253.285 250.42 251.951 249.48C252.073 248.658 251.961 247.818 251.629 247.056C251.296 246.294 250.757 245.641 250.071 245.17C242.221 239.81 237.071 236.58 236.911 236.45C236.417 236.138 235.866 235.927 235.29 235.828C234.714 235.729 234.124 235.745 233.554 235.874C232.983 236.003 232.444 236.243 231.967 236.58C231.49 236.918 231.083 237.346 230.771 237.84C230.46 238.335 230.248 238.886 230.149 239.462C230.05 240.038 230.066 240.628 230.195 241.198C230.324 241.768 230.564 242.307 230.901 242.785C231.239 243.262 231.667 243.668 232.161 243.98C232.161 243.98 237.351 247.26 245.051 252.52C245.73 252.988 246.527 253.256 247.35 253.295C248.174 253.334 248.991 253.142 249.711 252.74C251.061 253.67 252.391 254.6 253.711 255.54C253.583 256.352 253.683 257.184 253.999 257.943C254.315 258.702 254.835 259.359 255.501 259.84C258.581 262.04 261.641 264.27 264.591 266.47C267.446 268.644 270.186 270.964 272.801 273.42C273.4 273.981 274.144 274.361 274.949 274.518C275.753 274.676 276.586 274.604 277.351 274.31C294.761 291.04 317.521 318.36 324.971 328.57C331.741 337.85 364.761 369.19 393.651 382.16C391.269 383.469 389.07 385.086 387.111 386.97C385.385 388.548 384.013 390.473 383.084 392.618C382.155 394.764 381.691 397.082 381.721 399.42C381.801 402.93 383.801 406.12 387.651 408.9C399.471 417.43 427.171 421.22 452.251 421.22C467.011 421.22 480.871 419.9 490.051 417.48M449.881 375.98C456.681 376.21 462.881 377.67 467.281 380.1C470.881 382.1 473.091 384.6 473.181 386.84C473.341 390.48 467.741 393.53 458.921 394.59C437.971 397.11 412.261 386.3 403.211 382.07C416.441 377.28 434.761 375.45 449.881 375.98Z" fill="white"/>
<path d="M488.671 413.69C462.991 420.44 406.381 417.52 389.921 405.69C387.121 403.69 385.681 401.53 385.631 399.32C385.551 395.79 386.921 392.67 389.841 389.79C392.332 387.452 395.194 385.546 398.311 384.15C404.812 387.387 411.524 390.18 418.401 392.51C434.231 397.9 448.021 399.94 459.401 398.57C470.781 397.2 477.401 392.77 477.151 386.72C476.811 378.89 465.151 372.59 450.031 372.07C438.367 371.687 426.695 372.599 415.231 374.79C409.424 375.895 403.744 377.59 398.281 379.85C369.831 368.33 334.761 335.33 328.121 326.23C320.611 315.93 297.611 288.33 280.031 271.44C280.277 270.642 280.292 269.79 280.075 268.983C279.857 268.176 279.416 267.447 278.801 266.88C275.959 264.213 272.982 261.693 269.881 259.33C266.881 257.1 263.771 254.83 260.641 252.59C259.965 252.109 259.166 251.827 258.337 251.777C257.507 251.728 256.681 251.913 255.951 252.31C254.618 251.364 253.285 250.42 251.951 249.48C252.073 248.658 251.961 247.818 251.629 247.056C251.296 246.294 250.757 245.641 250.071 245.17C242.221 239.81 237.071 236.58 236.911 236.45C236.417 236.138 235.866 235.927 235.29 235.828C234.714 235.729 234.124 235.745 233.554 235.874C232.983 236.003 232.444 236.243 231.967 236.58C231.49 236.918 231.083 237.346 230.771 237.84C230.46 238.335 230.248 238.886 230.149 239.462C230.05 240.038 230.066 240.628 230.195 241.198C230.324 241.768 230.564 242.307 230.901 242.785C231.239 243.262 231.667 243.668 232.161 243.98C232.161 243.98 237.351 247.26 245.051 252.52C245.73 252.988 246.527 253.256 247.35 253.295C248.174 253.334 248.991 253.142 249.711 252.74C251.061 253.67 252.391 254.6 253.711 255.54C253.583 256.352 253.683 257.184 253.999 257.943C254.315 258.702 254.835 259.359 255.501 259.84C258.581 262.04 261.641 264.27 264.591 266.47C267.446 268.644 270.186 270.964 272.801 273.42C273.4 273.981 274.144 274.361 274.949 274.518C275.753 274.676 276.586 274.604 277.351 274.31C294.761 291.04 317.521 318.36 324.971 328.57C331.741 337.85 364.761 369.19 393.651 382.16C391.269 383.469 389.07 385.086 387.111 386.97C385.385 388.548 384.013 390.473 383.084 392.618C382.155 394.764 381.691 397.082 381.721 399.42C381.801 402.93 383.801 406.12 387.651 408.9C399.471 417.43 427.171 421.22 452.251 421.22C467.011 421.22 480.871 419.9 490.051 417.48M449.881 375.98C456.681 376.21 462.881 377.67 467.281 380.1C470.881 382.1 473.091 384.6 473.181 386.84C473.341 390.48 467.741 393.53 458.921 394.59C437.971 397.11 412.261 386.3 403.211 382.07C416.441 377.28 434.761 375.45 449.881 375.98Z" stroke="#263238" stroke-linecap="round" stroke-linejoin="round"/>
<path d="M393.602 382.11L398.312 384.1" stroke="#263238" stroke-linecap="round" stroke-linejoin="round"/>
<path d="M398.271 379.8L403.211 382.07" stroke="#263238" stroke-linecap="round" stroke-linejoin="round"/>
<path d="M216.621 313.03L215.621 329.11C215.569 329.936 215.786 330.756 216.241 331.447C216.696 332.138 217.363 332.662 218.141 332.94C219.706 333.514 221.366 333.779 223.031 333.72C223.876 333.675 224.717 333.585 225.551 333.45C226.408 333.313 227.192 332.887 227.774 332.243C228.356 331.6 228.701 330.777 228.751 329.91L229.701 314.36L216.621 313.03Z" fill="#616161" stroke="#263238" stroke-linecap="round" stroke-linejoin="round"/>
<path d="M220.652 214.29L213.112 309.35C212.988 310.94 213.492 312.515 214.514 313.738C215.536 314.962 216.995 315.738 218.582 315.9L226.192 316.67C227.003 316.751 227.823 316.668 228.602 316.427C229.382 316.185 230.105 315.79 230.728 315.264C231.352 314.738 231.864 314.093 232.234 313.365C232.604 312.638 232.824 311.844 232.882 311.03L239.552 215.4L220.652 214.29Z" fill="#A558FF" stroke="#263238" stroke-linecap="round" stroke-linejoin="round"/>
<path d="M230.632 305.85L230.502 307.64C230.502 307.64 230.302 311.99 227.132 313.38" stroke="#263238" stroke-linecap="round" stroke-linejoin="round"/>
<path d="M235.842 234.42L230.902 302.1" stroke="#263238" stroke-linecap="round" stroke-linejoin="round"/>
<path d="M220.182 220.28L239.142 221.41L239.562 215.4L220.652 214.29L220.182 220.28Z" fill="#616161" stroke="#263238" stroke-linecap="round" stroke-linejoin="round"/>
<path d="M238.437 252.141L215.897 250.802L215.334 260.275L237.874 261.614L238.437 252.141Z" fill="#616161" stroke="#263238" stroke-linecap="round" stroke-linejoin="round"/>
<path d="M245.351 217.4L245.411 215.08H241.661C239.821 214.96 238.201 219.81 238.031 225.91C237.861 232.01 239.221 237.07 241.031 237.2H244.791L244.841 235.14C245.896 232.333 246.434 229.359 246.431 226.36C246.6 223.333 246.235 220.3 245.351 217.4V217.4Z" fill="#616161" stroke="#263238" stroke-linecap="round" stroke-linejoin="round"/>
<path d="M248.432 226.36C248.262 232.47 246.642 237.36 244.812 237.2C242.982 237.04 241.622 232.02 241.812 225.91C242.002 219.8 243.592 214.91 245.432 215.08C247.272 215.25 248.602 220.25 248.432 226.36Z" fill="#828282" stroke="#263238" stroke-linecap="round" stroke-linejoin="round"/>
<path d="M244.972 226.36L268.712 226.59" stroke="#263238" stroke-width="5" stroke-linecap="round" stroke-linejoin="round"/>
<path d="M265.322 135.17L272.712 167.98C272.712 167.98 270.342 168.15 270.542 169.34C270.742 170.53 271.182 171.96 271.182 171.96C271.182 171.96 269.282 172.38 269.252 173.56C269.542 175.497 269.977 177.409 270.552 179.28C273.714 178.838 276.934 179.084 279.992 180C282.067 180.721 284.098 181.566 286.072 182.53L288.552 183.78L289.622 179.32C289.622 179.32 293.152 179.89 293.232 176.82C293.226 174.721 292.889 172.635 292.232 170.64C292.232 170.64 294.082 172.11 293.232 167.13C292.382 162.15 291.352 157.62 291.352 157.62C291.352 157.62 293.352 128.36 289.952 121.89C286.552 115.42 278.172 111.65 278.172 111.65" fill="#6010B1"/>
<path d="M265.322 135.17L272.712 167.98C272.712 167.98 270.342 168.15 270.542 169.34C270.742 170.53 271.182 171.96 271.182 171.96C271.182 171.96 269.282 172.38 269.252 173.56C269.542 175.497 269.977 177.409 270.552 179.28C273.714 178.838 276.934 179.084 279.992 180C282.067 180.721 284.098 181.566 286.072 182.53L288.552 183.78L289.622 179.32C289.622 179.32 293.152 179.89 293.232 176.82C293.226 174.721 292.889 172.635 292.232 170.64C292.232 170.64 294.082 172.11 293.232 167.13C292.382 162.15 291.352 157.62 291.352 157.62C291.352 157.62 293.352 128.36 289.952 121.89C286.552 115.42 278.172 111.65 278.172 111.65" stroke="#263238" stroke-linecap="round" stroke-linejoin="round"/>
<path d="M274.832 168.46C274.832 168.46 281.832 165.46 288.482 168.7" stroke="#263238" stroke-linecap="round" stroke-linejoin="round"/>
<path d="M288.482 159.98C288.482 159.98 281.552 158.28 274.552 165.23" stroke="#263238" stroke-linecap="round" stroke-linejoin="round"/>
<path d="M270.552 179.28L264.872 207.63L276.722 212.44L288.552 183.78C288.552 183.78 281.032 176.98 270.552 179.28Z" fill="white" stroke="#263238" stroke-linecap="round" stroke-linejoin="round"/>
<path d="M273.702 222.84L279.822 212.52C279.822 212.52 274.822 208.05 270.992 206.75C267.162 205.45 260.412 205.27 260.412 205.27L257.412 215.81C257.412 215.81 246.772 221.81 246.592 222.81C246.412 223.81 247.132 230.61 248.002 231.53C248.872 232.45 256.472 233.86 258.852 234.37C261.232 234.88 264.702 234.08 265.032 232.89C265.362 231.7 263.472 229.71 263.482 229.26C263.492 228.81 268.282 228.94 269.812 227.48C271.214 226.025 272.514 224.475 273.702 222.84V222.84Z" fill="#6010B1" stroke="#263238" stroke-linecap="round" stroke-linejoin="round"/>
<path d="M234.902 359.41C234.902 360.068 234.707 360.711 234.342 361.258C233.977 361.805 233.458 362.232 232.851 362.485C232.243 362.737 231.575 362.805 230.929 362.678C230.284 362.551 229.691 362.236 229.224 361.772C228.758 361.308 228.439 360.717 228.308 360.072C228.177 359.427 228.241 358.759 228.489 358.15C228.738 357.541 229.162 357.019 229.707 356.651C230.252 356.283 230.894 356.084 231.552 356.08C231.991 356.078 232.426 356.162 232.832 356.328C233.239 356.494 233.608 356.739 233.919 357.048C234.231 357.358 234.478 357.726 234.646 358.131C234.815 358.537 234.902 358.971 234.902 359.41Z" stroke="#263238" stroke-linecap="round" stroke-linejoin="round"/>
<path d="M238.422 339.65C238.422 340.116 238.284 340.57 238.025 340.957C237.766 341.344 237.399 341.645 236.969 341.822C236.539 342 236.066 342.046 235.61 341.954C235.153 341.863 234.735 341.638 234.406 341.308C234.078 340.979 233.855 340.559 233.766 340.103C233.676 339.646 233.724 339.173 233.903 338.744C234.083 338.315 234.386 337.949 234.773 337.691C235.161 337.434 235.616 337.298 236.082 337.3C236.39 337.3 236.695 337.361 236.979 337.479C237.264 337.598 237.522 337.771 237.74 337.989C237.957 338.208 238.129 338.467 238.246 338.752C238.363 339.037 238.423 339.342 238.422 339.65V339.65Z" stroke="#263238" stroke-linecap="round" stroke-linejoin="round"/>
<path d="M360.071 220.8C380.257 220.8 396.621 204.436 396.621 184.25C396.621 164.064 380.257 147.7 360.071 147.7C339.885 147.7 323.521 164.064 323.521 184.25C323.521 204.436 339.885 220.8 360.071 220.8Z" fill="#263238" stroke="#263238" stroke-linecap="round" stroke-linejoin="round"/>
<path d="M357.832 220.12C378.018 220.12 394.382 203.756 394.382 183.57C394.382 163.384 378.018 147.02 357.832 147.02C337.646 147.02 321.282 163.384 321.282 183.57C321.282 203.756 337.646 220.12 357.832 220.12Z" fill="white" stroke="#263238" stroke-linecap="round" stroke-linejoin="round"/>
<path d="M357.792 152.54C351.649 152.53 345.641 154.343 340.528 157.749C335.415 161.155 331.428 166.001 329.07 171.673C326.712 177.346 326.09 183.591 327.282 189.617C328.475 195.644 331.428 201.181 335.769 205.528C340.109 209.876 345.641 212.838 351.666 214.04C357.69 215.242 363.936 214.63 369.613 212.282C375.289 209.933 380.142 205.953 383.556 200.846C386.97 195.739 388.792 189.734 388.792 183.59C388.784 175.366 385.517 167.481 379.707 161.661C373.896 155.841 366.016 152.561 357.792 152.54V152.54Z" fill="white" stroke="#263238" stroke-linecap="round" stroke-linejoin="round"/>
<path d="M388.975 121.762C403.248 107.488 403.248 84.3461 388.975 70.0725C374.701 55.7988 351.559 55.7988 337.285 70.0725C323.012 84.3461 323.012 107.488 337.285 121.762C351.559 136.036 374.701 136.036 388.975 121.762Z" fill="#263238" stroke="#263238" stroke-linecap="round" stroke-linejoin="round"/>
<path d="M366.638 131.318C386.573 128.146 400.163 109.414 396.991 89.4787C393.819 69.5434 375.087 55.9538 355.152 59.1255C335.217 62.2972 321.627 81.0291 324.799 100.964C327.971 120.9 346.703 134.489 366.638 131.318Z" fill="white" stroke="#263238" stroke-linecap="round" stroke-linejoin="round"/>
<path d="M360.842 64.2002C354.698 64.1903 348.69 66.003 343.578 69.4088C338.465 72.8146 334.477 77.6605 332.12 83.3332C329.762 89.006 329.14 95.2507 330.332 101.277C331.525 107.303 334.478 112.841 338.818 117.188C343.159 121.536 348.691 124.498 354.716 125.7C360.74 126.902 366.986 126.29 372.662 123.941C378.339 121.593 383.191 117.613 386.605 112.506C390.019 107.399 391.842 101.393 391.842 95.2502C391.834 87.0263 388.567 79.1408 382.756 73.321C376.946 67.5011 369.066 64.2214 360.842 64.2002V64.2002Z" fill="white" stroke="#263238" stroke-linecap="round" stroke-linejoin="round"/>
<path d="M369.332 95.0903V94.8803C374.022 93.8803 376.572 91.7303 376.572 87.2403C376.572 82.1503 373.292 79.2403 367.072 78.3603V71.3603H363.122V78.0803H359.452V71.3403H355.552V78.0703H346.752V83.2703H348.482C348.859 83.3313 349.207 83.512 349.473 83.7858C349.74 84.0595 349.911 84.4117 349.962 84.7903V106.98C349.912 107.36 349.741 107.714 349.474 107.989C349.208 108.265 348.86 108.447 348.482 108.51H346.752V113.76H355.552V120.43H359.492V113.76H363.162V120.44H367.112V113.44C373.812 112.5 377.832 109.17 377.832 103.38C377.792 98.5503 374.792 95.9003 369.332 95.0903ZM359.392 82.7803H362.142C366.202 82.7803 367.632 84.3703 367.632 87.6103C367.632 90.8503 366.142 92.5503 362.142 92.5503H359.392V82.7803ZM362.472 109.24H359.392V98.0903H362.472C367.082 98.0903 368.472 99.8503 368.472 103.47C368.472 107.09 367.082 109.24 362.472 109.24V109.24Z" fill="#6010B1"/>
<path d="M451.272 188.14C471.458 188.14 487.822 171.776 487.822 151.59C487.822 131.404 471.458 115.04 451.272 115.04C431.086 115.04 414.722 131.404 414.722 151.59C414.722 171.776 431.086 188.14 451.272 188.14Z" fill="#263238" stroke="#263238" stroke-linecap="round" stroke-linejoin="round"/>
<path d="M449.031 187.45C469.217 187.45 485.581 171.086 485.581 150.9C485.581 130.714 469.217 114.35 449.031 114.35C428.845 114.35 412.481 130.714 412.481 150.9C412.481 171.086 428.845 187.45 449.031 187.45Z" fill="white" stroke="#263238" stroke-linecap="round" stroke-linejoin="round"/>
<path d="M448.992 119.87C442.851 119.87 436.848 121.691 431.741 125.103C426.635 128.515 422.656 133.364 420.305 139.038C417.955 144.712 417.34 150.955 418.539 156.978C419.737 163.001 422.694 168.534 427.036 172.876C431.379 177.218 436.911 180.176 442.934 181.374C448.957 182.572 455.201 181.957 460.874 179.607C466.548 177.257 471.397 173.277 474.809 168.171C478.221 163.065 480.042 157.061 480.042 150.92C480.031 142.689 476.757 134.797 470.936 128.976C465.115 123.156 457.224 119.881 448.992 119.87V119.87Z" fill="white" stroke="#263238" stroke-linecap="round" stroke-linejoin="round"/>
<path d="M350.945 266.214C357.392 250.981 350.27 233.406 335.037 226.959C319.804 220.512 302.229 227.634 295.782 242.867C289.335 258.1 296.457 275.675 311.69 282.122C326.923 288.569 344.498 281.447 350.945 266.214Z" fill="#263238" stroke="#263238" stroke-linecap="round" stroke-linejoin="round"/>
<path d="M321.532 283.93C338.072 283.93 351.482 270.521 351.482 253.98C351.482 237.439 338.072 224.03 321.532 224.03C304.991 224.03 291.582 237.439 291.582 253.98C291.582 270.521 304.991 283.93 321.532 283.93Z" fill="white" stroke="#263238" stroke-linecap="round" stroke-linejoin="round"/>
<path d="M321.552 228.56C316.517 228.548 311.592 230.031 307.4 232.82C303.208 235.609 299.938 239.579 298.004 244.228C296.069 248.876 295.558 253.994 296.535 258.934C297.511 263.873 299.931 268.412 303.489 271.975C307.046 275.538 311.581 277.965 316.519 278.949C321.457 279.934 326.575 279.43 331.227 277.504C335.879 275.577 339.854 272.313 342.65 268.126C345.446 263.938 346.936 259.015 346.932 253.98C346.919 247.249 344.242 240.797 339.486 236.034C334.73 231.271 328.283 228.584 321.552 228.56V228.56Z" fill="white" stroke="#263238" stroke-linecap="round" stroke-linejoin="round"/>
<path d="M328.452 253.86V253.7C332.292 252.9 334.382 251.11 334.382 247.43C334.382 243.27 331.692 240.89 326.602 240.16V234.41H323.362V239.98H320.362V234.47H317.122V239.98H309.912V244.24H311.332C311.641 244.29 311.927 244.438 312.145 244.664C312.363 244.889 312.502 245.179 312.542 245.49V263.65C312.502 263.961 312.363 264.252 312.145 264.477C311.927 264.702 311.641 264.851 311.332 264.9H309.912V269.21H317.122V274.67H320.362V269.21H323.362V274.68H326.602V268.98C332.082 268.21 335.382 265.48 335.382 260.74C335.382 256.7 332.922 254.53 328.452 253.86ZM320.312 243.78H322.552C325.872 243.78 327.042 245.09 327.042 247.78C327.042 250.47 325.832 251.83 322.552 251.83H320.302L320.312 243.78ZM322.832 265.45H320.312V256.33H322.832C326.602 256.33 327.772 257.77 327.772 260.73C327.772 263.69 326.602 265.45 322.832 265.45V265.45Z" fill="#6010B1"/>
<path d="M364.332 183.095V182.935C368.172 182.135 370.262 180.345 370.262 176.665C370.262 172.505 367.572 170.125 362.482 169.395V163.645H359.242V169.215H356.242V163.705H353.002V169.215H345.792V173.475H347.212C347.521 173.525 347.807 173.673 348.025 173.899C348.243 174.124 348.382 174.414 348.422 174.725V192.885C348.382 193.196 348.243 193.487 348.025 193.712C347.807 193.937 347.521 194.086 347.212 194.135H345.792V198.445H353.002V203.905H356.242V198.445H359.242V203.915H362.482V198.215C367.962 197.445 371.262 194.715 371.262 189.975C371.262 185.935 368.802 183.765 364.332 183.095ZM356.192 173.015H358.432C361.752 173.015 362.922 174.325 362.922 177.015C362.922 179.705 361.712 181.065 358.432 181.065H356.182L356.192 173.015ZM358.712 194.685H356.192V185.565H358.712C362.482 185.565 363.652 187.005 363.652 189.965C363.652 192.925 362.482 194.685 358.712 194.685V194.685Z" fill="#6010B1"/>
<path d="M459.387 149.26V149.1C463.227 148.3 465.317 146.51 465.317 142.83C465.317 138.67 462.627 136.29 457.537 135.56V129.81H454.297V135.38H451.297V129.87H448.057V135.38H440.847V139.64H442.267C442.577 139.689 442.862 139.838 443.08 140.063C443.299 140.289 443.438 140.579 443.477 140.89V159.05C443.438 159.361 443.299 159.651 443.08 159.876C442.862 160.102 442.577 160.25 442.267 160.3H440.847V164.61H448.057V170.07H451.297V164.61H454.297V170.08H457.537V164.38C463.017 163.61 466.317 160.88 466.317 156.14C466.317 152.1 463.857 149.93 459.387 149.26ZM451.247 139.18H453.487C456.807 139.18 457.977 140.49 457.977 143.18C457.977 145.87 456.767 147.23 453.487 147.23H451.237L451.247 139.18ZM453.767 160.85H451.247V151.73H453.767C457.537 151.73 458.707 153.17 458.707 156.13C458.707 159.09 457.537 160.85 453.767 160.85V160.85Z" fill="#6010B1"/>
<path d="M381.062 319.172C386.647 305.937 380.446 290.681 367.212 285.096C353.977 279.511 338.72 285.712 333.135 298.947C327.55 312.181 333.751 327.438 346.986 333.023C360.221 338.608 375.477 332.407 381.062 319.172Z" fill="#263238" stroke="#263238" stroke-linecap="round" stroke-linejoin="round"/>
<path d="M361.405 333.936C375.395 330.672 384.09 316.686 380.827 302.697C377.564 288.708 363.578 280.012 349.588 283.276C335.599 286.539 326.904 300.525 330.167 314.514C333.43 328.503 347.416 337.199 361.405 333.936Z" fill="white" stroke="#263238" stroke-linecap="round" stroke-linejoin="round"/>
<path d="M355.482 286.5C351.112 286.496 346.839 287.789 343.204 290.213C339.568 292.638 336.734 296.087 335.059 300.123C333.384 304.159 332.944 308.601 333.794 312.888C334.644 317.174 336.746 321.112 339.835 324.203C342.923 327.295 346.859 329.4 351.145 330.254C355.43 331.108 359.873 330.672 363.91 329.001C367.948 327.329 371.399 324.498 373.827 320.865C376.256 317.232 377.552 312.96 377.552 308.59C377.544 302.738 375.217 297.126 371.08 292.986C366.943 288.846 361.334 286.513 355.482 286.5V286.5Z" fill="white" stroke="#263238" stroke-linecap="round" stroke-linejoin="round"/>
<path d="M301.67 352.175C312.651 349.605 319.47 338.621 316.9 327.64C314.331 316.658 303.346 309.84 292.365 312.409C281.384 314.979 274.565 325.964 277.134 336.945C279.704 347.926 290.689 354.744 301.67 352.175Z" fill="#263238" stroke="#263238" stroke-linecap="round" stroke-linejoin="round"/>
<path d="M295.752 352.36C307.029 352.36 316.172 343.218 316.172 331.94C316.172 320.663 307.029 311.52 295.752 311.52C284.474 311.52 275.332 320.663 275.332 331.94C275.332 343.218 284.474 352.36 295.752 352.36Z" fill="white" stroke="#263238" stroke-linecap="round" stroke-linejoin="round"/>
<path d="M295.722 314.6C292.291 314.6 288.938 315.617 286.086 317.522C283.233 319.427 281.009 322.135 279.695 325.304C278.381 328.472 278.036 331.959 278.703 335.324C279.37 338.689 281.019 341.78 283.443 344.208C285.866 346.636 288.955 348.29 292.318 348.963C295.682 349.636 299.17 349.297 302.34 347.988C305.511 346.68 308.223 344.461 310.133 341.611C312.043 338.762 313.066 335.411 313.072 331.98C313.072 327.376 311.245 322.96 307.992 319.701C304.739 316.443 300.326 314.608 295.722 314.6V314.6Z" fill="white" stroke="#263238" stroke-linecap="round" stroke-linejoin="round"/>
<path d="M300.47 331.861V331.751C303.09 331.211 304.47 329.981 304.47 327.481C304.47 324.631 302.64 323.011 299.16 322.481V318.551H296.96V322.321H294.95V318.561H292.74V322.321H287.82V325.231H288.82C289.031 325.265 289.225 325.366 289.375 325.519C289.524 325.672 289.621 325.869 289.65 326.081V338.471C289.621 338.682 289.524 338.879 289.375 339.032C289.225 339.185 289.031 339.286 288.82 339.321H287.82V342.251H292.74V345.981H294.95V342.281H297V345.981H299.2V342.091C302.94 341.571 305.2 339.711 305.2 336.471C305.19 333.801 303.55 332.321 300.47 331.861ZM294.91 324.981H296.45C298.72 324.981 299.51 325.871 299.51 327.671C299.51 329.471 298.69 330.431 296.45 330.431H294.91V324.981ZM296.63 339.761H294.91V333.531H296.63C299.21 333.531 300 334.531 300 336.531C300 338.531 299.21 339.771 296.63 339.771V339.761Z" fill="#6010B1"/>
<path d="M358.442 308.819V308.709C361.062 308.169 362.442 306.939 362.442 304.439C362.442 301.589 360.612 299.969 357.132 299.439V295.509H354.932V299.279H352.922V295.519H350.712V299.279H345.792V302.189H346.792C347.003 302.223 347.197 302.324 347.346 302.477C347.496 302.63 347.592 302.827 347.622 303.039V315.429C347.592 315.641 347.496 315.838 347.346 315.991C347.197 316.143 347.003 316.245 346.792 316.279H345.792V319.209H350.712V322.939H352.922V319.239H354.972V322.939H357.172V319.049C360.912 318.529 363.172 316.669 363.172 313.429C363.162 310.759 361.522 309.279 358.442 308.819ZM352.882 301.939H354.422C356.692 301.939 357.482 302.829 357.482 304.629C357.482 306.429 356.662 307.389 354.422 307.389H352.882V301.939ZM354.602 316.719H352.882V310.489H354.602C357.182 310.489 357.972 311.489 357.972 313.489C357.972 315.489 357.182 316.729 354.602 316.729V316.719Z" fill="#6010B1"/>
<path d="M261.746 325.171C269.736 323.272 274.673 315.255 272.774 307.266C270.875 299.276 262.859 294.338 254.869 296.237C246.879 298.136 241.941 306.153 243.84 314.143C245.739 322.132 253.756 327.07 261.746 325.171Z" fill="#263238" stroke="#263238" stroke-linecap="round" stroke-linejoin="round"/>
<path d="M271.114 316.202C274.286 308.626 270.717 299.914 263.142 296.742C255.566 293.57 246.854 297.14 243.682 304.715C240.51 312.29 244.08 321.003 251.655 324.175C259.23 327.347 267.943 323.777 271.114 316.202Z" fill="white" stroke="#263238" stroke-linecap="round" stroke-linejoin="round"/>
<path d="M257.382 297.81C254.883 297.808 252.44 298.547 250.362 299.934C248.284 301.321 246.663 303.292 245.706 305.6C244.749 307.908 244.497 310.448 244.983 312.898C245.469 315.349 246.671 317.6 248.437 319.368C250.203 321.135 252.454 322.339 254.904 322.827C257.354 323.315 259.894 323.066 262.203 322.11C264.511 321.154 266.484 319.535 267.872 317.458C269.261 315.381 270.002 312.939 270.002 310.44C269.999 307.093 268.669 303.884 266.303 301.516C263.937 299.148 260.729 297.816 257.382 297.81V297.81Z" fill="white" stroke="#263238" stroke-linecap="round" stroke-linejoin="round"/>
<path d="M397.448 257.596C405.444 255.72 410.405 247.718 408.53 239.723C406.655 231.727 398.653 226.766 390.657 228.641C382.662 230.517 377.7 238.519 379.576 246.514C381.451 254.509 389.453 259.471 397.448 257.596Z" fill="#263238" stroke="#263238" stroke-linecap="round" stroke-linejoin="round"/>
<path d="M393.132 257.73C401.344 257.73 408.002 251.073 408.002 242.86C408.002 234.648 401.344 227.99 393.132 227.99C384.919 227.99 378.262 234.648 378.262 242.86C378.262 251.073 384.919 257.73 393.132 257.73Z" fill="white" stroke="#263238" stroke-linecap="round" stroke-linejoin="round"/>
<path d="M393.111 230.24C390.613 230.24 388.172 230.981 386.095 232.369C384.018 233.757 382.399 235.729 381.443 238.037C380.487 240.345 380.237 242.884 380.724 245.334C381.211 247.784 382.414 250.035 384.181 251.801C385.947 253.567 388.197 254.77 390.647 255.258C393.097 255.745 395.637 255.495 397.945 254.539C400.253 253.583 402.225 251.964 403.613 249.887C405.001 247.81 405.741 245.368 405.741 242.87C405.736 239.522 404.404 236.313 402.036 233.945C399.669 231.578 396.46 230.246 393.111 230.24V230.24Z" fill="white" stroke="#263238" stroke-linecap="round" stroke-linejoin="round"/>
<path d="M254.282 360.36C259.76 360.36 264.202 355.919 264.202 350.44C264.202 344.962 259.76 340.52 254.282 340.52C248.803 340.52 244.362 344.962 244.362 350.44C244.362 355.919 248.803 360.36 254.282 360.36Z" fill="#263238" stroke="#263238" stroke-linecap="round" stroke-linejoin="round"/>
<path d="M253.671 360.17C259.15 360.17 263.591 355.729 263.591 350.25C263.591 344.772 259.15 340.33 253.671 340.33C248.193 340.33 243.751 344.772 243.751 350.25C243.751 355.729 248.193 360.17 253.671 360.17Z" fill="white" stroke="#263238" stroke-linecap="round" stroke-linejoin="round"/>
<path d="M253.662 341.83C251.994 341.828 250.363 342.321 248.976 343.246C247.588 344.171 246.506 345.487 245.866 347.027C245.227 348.568 245.058 350.263 245.382 351.899C245.707 353.535 246.509 355.038 247.687 356.218C248.866 357.398 250.368 358.202 252.003 358.528C253.639 358.854 255.334 358.687 256.875 358.05C258.416 357.412 259.734 356.331 260.66 354.945C261.587 353.558 262.082 351.928 262.082 350.26C262.079 348.027 261.191 345.886 259.613 344.306C258.035 342.726 255.895 341.836 253.662 341.83V341.83Z" fill="white" stroke="#263238" stroke-linecap="round" stroke-linejoin="round"/>
<path d="M255.962 350.21V350.16C257.232 349.89 257.962 349.3 257.962 348.08C257.962 346.7 257.072 345.92 255.392 345.68V343.77H254.322V345.6H253.322V343.78H252.252V345.6H249.862V346.98H250.332C250.434 346.995 250.529 347.043 250.601 347.117C250.674 347.191 250.72 347.287 250.732 347.39V353.39C250.72 353.494 250.675 353.592 250.602 353.668C250.53 353.743 250.435 353.793 250.332 353.81H249.862V355.23H252.252V357.04H253.322V355.23H254.322V357.04H255.392V355.16C257.202 354.9 258.302 354 258.302 352.43C258.262 351.15 257.442 350.43 255.962 350.21ZM253.262 346.87H254.012C255.112 346.87 255.502 347.31 255.502 348.18C255.502 349.05 255.102 349.52 254.012 349.52H253.262V346.87ZM254.102 354.05H253.262V351.05H254.102C255.352 351.05 255.742 351.52 255.742 352.51C255.742 353.5 255.352 354.05 254.102 354.05V354.05Z" fill="#6010B1"/>
<path d="M394.892 242.174V242.124C396.162 241.854 396.892 241.264 396.892 240.044C396.892 238.664 396.002 237.884 394.322 237.644V235.734H393.252V237.564H392.252V235.744H391.182V237.564H388.792V238.944H389.262C389.365 238.959 389.459 239.007 389.532 239.081C389.604 239.155 389.65 239.251 389.662 239.354V245.354C389.65 245.458 389.605 245.556 389.533 245.632C389.46 245.707 389.365 245.757 389.262 245.774H388.792V247.194H391.182V249.004H392.252V247.194H393.252V249.004H394.322V247.124C396.132 246.864 397.232 245.964 397.232 244.394C397.192 243.114 396.372 242.394 394.892 242.174ZM392.192 238.834H392.942C394.042 238.834 394.432 239.274 394.432 240.144C394.432 241.014 394.032 241.484 392.942 241.484H392.192V238.834ZM393.032 246.014H392.192V243.014H393.032C394.282 243.014 394.672 243.484 394.672 244.474C394.672 245.464 394.282 246.014 393.032 246.014V246.014Z" fill="#6010B1"/>
<path d="M260.256 309.906V309.838C261.883 309.503 262.74 308.739 262.74 307.186C262.74 305.416 261.603 304.41 259.442 304.081V301.64H258.076V303.982H256.827V301.646H255.455V303.982H252.399V305.789H253.02C253.152 305.81 253.272 305.873 253.365 305.968C253.458 306.063 253.518 306.185 253.536 306.317V314.011C253.518 314.143 253.458 314.265 253.365 314.36C253.272 314.455 253.152 314.518 253.02 314.539H252.399V316.359H255.455V318.675H256.827V316.377H258.101V318.675H259.467V316.259C261.789 315.937 263.193 314.781 263.193 312.769C263.187 311.111 262.168 310.192 260.256 309.906ZM256.803 305.634H257.759C259.169 305.634 259.659 306.186 259.659 307.304C259.659 308.422 259.15 309.018 257.759 309.018H256.803V305.634ZM257.871 314.812H256.803V310.943H257.871C259.473 310.943 259.964 311.564 259.964 312.806C259.964 314.049 259.473 314.819 257.871 314.819V314.812Z" fill="#6010B1"/>
</g>
<defs>
<filter id="filter0_f_137_342" x="-11.8154" y="-10.5049" width="525.856" height="519.018" filterUnits="userSpaceOnUse" color-interpolation-filters="sRGB">
<feFlood flood-opacity="0" result="BackgroundImageFix"/>
<feBlend mode="normal" in="SourceGraphic" in2="BackgroundImageFix" result="shape"/>
<feGaussianBlur stdDeviation="21" result="effect1_foregroundBlur_137_342"/>
</filter>
<linearGradient id="paint0_linear_137_342" x1="251.113" y1="31.4951" x2="251.113" y2="466.513" gradientUnits="userSpaceOnUse">
<stop stop-color="#C19CFF"/>
<stop offset="1" stop-color="#6010B1"/>
</linearGradient>
<linearGradient id="paint1_linear_137_342" x1="251.113" y1="31.4951" x2="251.113" y2="466.513" gradientUnits="userSpaceOnUse">
<stop stop-color="#C19CFF"/>
<stop offset="1" stop-color="#6010B1"/>
</linearGradient>
<clipPath id="clip0_137_342">
<rect width="500" height="500" fill="white" transform="translate(0.551758 0.980225)"/>
</clipPath>
</defs>
</svg>
