<svg version="1.1" id="Layer_1" xmlns="http://www.w3.org/2000/svg" xmlns:xlink="http://www.w3.org/1999/xlink" x="0px" y="0px"
	 width="100%" viewBox="0 0 500 500" enable-background="new 0 0 500 500" xml:space="preserve">
<path fill="" opacity="1.000000" stroke="none" 
	d="
M1.000000,274.000000 
	C1.000000,183.035034 1.000000,92.070053 1.000000,1.052542 
	C167.567474,1.052542 334.134949,1.052542 501.000000,1.052542 
	C501.000000,120.687935 501.000000,240.376114 500.774109,360.867249 
	C498.642761,360.113403 496.737274,358.556610 494.590576,356.665436 
	C493.030273,356.221619 491.711182,356.016541 490.392059,356.016327 
	C403.178528,356.001160 315.964996,355.998138 228.751495,356.037079 
	C227.168045,356.037781 225.584808,356.556671 223.684906,356.987427 
	C218.965668,359.928772 215.335236,363.129364 215.975693,369.104675 
	C216.525070,374.230377 219.692932,377.117615 224.310989,379.448669 
	C225.942963,379.819580 227.266556,379.986145 228.590164,379.986359 
	C315.809601,379.998657 403.029022,380.001953 490.248444,379.962952 
	C491.832062,379.962250 493.415375,379.443329 495.306122,379.017151 
	C497.408936,377.578735 499.204468,376.289368 501.000000,375.000000 
	C501.000000,416.978119 501.000000,458.956207 501.000000,500.967163 
	C334.442078,500.967163 167.884171,500.967163 1.000000,500.967163 
	C1.000000,431.312225 1.000000,361.623962 1.306606,291.156769 
	C2.952162,290.985352 4.256470,291.689819 5.636384,292.182648 
	C10.244063,293.828247 14.793154,293.642761 18.307117,290.046539 
	C21.494225,286.784851 23.234726,282.570190 20.881680,278.108185 
	C18.730835,274.029572 15.549589,270.963440 10.270517,272.010254 
	C7.170716,272.624939 4.089549,273.333618 1.000000,274.000000 
M61.618237,379.730499 
	C62.275131,379.814758 62.931999,379.972565 63.588924,379.972809 
	C105.142937,379.988617 146.696945,379.998810 188.250931,379.960938 
	C189.499924,379.959778 190.748444,379.443054 192.634262,378.856995 
	C201.230164,375.705139 202.059265,361.574158 192.349564,356.331268 
	C191.530975,356.223724 190.712402,356.022400 189.893784,356.022064 
	C147.845184,356.005341 105.796570,355.998566 63.748013,356.039062 
	C62.499157,356.040253 61.250805,356.557068 59.369915,357.139709 
	C53.114346,360.937408 50.650043,364.920227 52.138882,370.566681 
	C53.286964,374.920837 56.082554,378.327850 61.618237,379.730499 
M175.358078,444.148956 
	C170.390015,446.221832 169.009811,450.924713 169.257019,455.242889 
	C169.535492,460.106964 172.331985,464.288025 178.618317,465.730499 
	C179.275604,465.814789 179.932877,465.972626 180.590179,465.972809 
	C234.143265,465.988342 287.696350,465.997253 341.249390,465.961121 
	C342.499054,465.960266 343.748413,465.442871 345.722321,465.011505 
	C351.464294,463.147064 354.530151,459.600372 354.069794,453.160339 
	C353.648132,447.261963 349.254883,445.732147 344.381317,443.269440 
	C343.724030,443.185181 343.066742,443.027252 342.409424,443.027069 
	C288.190125,443.011566 233.970810,443.002808 179.751541,443.038879 
	C178.501785,443.039703 177.252396,443.556885 175.358078,444.148956 
M441.783844,423.045410 
	C449.578796,422.599182 454.651825,413.735565 451.517303,406.849060 
	C448.930664,401.166260 444.495178,399.801605 438.381958,399.269592 
	C437.724731,399.185272 437.067505,399.027344 436.410248,399.027161 
	C384.856781,399.011566 333.303314,399.002502 281.749878,399.038879 
	C280.500275,399.039764 279.251038,399.557129 277.276398,399.988525 
	C270.262482,403.286133 268.345093,406.445343 269.005188,413.616821 
	C269.524689,419.260468 274.766113,423.654327 280.928680,422.946869 
	C312.346100,422.963898 343.763489,423.005554 375.180908,422.989502 
	C397.120880,422.978302 419.060760,422.888123 441.783844,423.045410 
M51.084412,271.972534 
	C48.757618,271.981995 46.430836,271.995483 44.104034,272.000122 
	C38.287262,272.011719 34.058437,274.706696 33.055954,279.045898 
	C31.730160,284.784546 34.141380,289.339111 40.618931,292.730621 
	C41.942547,292.819550 43.266151,292.986145 44.589779,292.986328 
	C132.475906,292.998627 220.362015,293.001831 308.248108,292.962921 
	C309.831726,292.962219 311.415100,292.443359 313.738647,292.008698 
	C317.325623,288.943756 319.366119,281.843872 317.742920,277.385193 
	C315.986145,272.559570 312.188354,271.360901 307.468689,271.976624 
	C306.665436,272.081390 305.823364,271.888977 304.382294,271.269623 
	C303.391693,271.181396 302.401062,271.015991 301.410461,271.015839 
	C219.690781,271.003265 137.971100,270.999359 56.251442,271.037445 
	C54.834438,271.038116 53.417675,271.556854 51.084412,271.972534 
M440.349152,314.331055 
	C439.029724,314.221588 437.710266,314.016479 436.390839,314.016296 
	C330.178192,314.001404 223.965515,313.998901 117.752869,314.036987 
	C116.169037,314.037567 114.585388,314.556641 112.349052,315.155457 
	C106.809647,317.861633 105.316849,320.608276 106.006332,326.825623 
	C106.480034,331.097076 110.725876,335.064850 116.618507,336.730530 
	C117.942368,336.819489 119.266212,336.986206 120.590080,336.986359 
	C224.808899,336.998474 329.027710,337.001190 433.246521,336.963013 
	C434.830414,336.962433 436.414124,336.443420 438.713287,336.011658 
	C443.385590,334.137482 446.452972,330.941376 446.988159,325.756744 
	C447.507416,320.726471 445.105988,317.313812 440.349152,314.331055 
M115.618507,250.730515 
	C117.109055,250.819595 118.599602,250.986496 120.090157,250.986649 
	C238.642303,250.998703 357.194458,251.001312 475.746613,250.963196 
	C477.497253,250.962631 479.247681,250.443466 481.721222,250.010925 
	C487.732941,248.546814 488.704834,243.582230 488.863037,238.695114 
	C488.999207,234.488922 487.944885,230.289948 482.349731,228.331253 
	C481.030151,228.221741 479.710571,228.016464 478.390991,228.016296 
	C358.512146,228.001556 238.633301,227.999329 118.754456,228.036942 
	C117.170380,228.037430 115.586464,228.556412 113.345390,229.158218 
	C107.361549,231.556458 105.516998,234.434097 106.004890,240.610001 
	C106.331726,244.747269 110.479691,249.153305 115.618507,250.730515 
M309.499573,202.490677 
	C354.492096,202.490646 399.484619,202.492599 444.477142,202.488907 
	C453.421509,202.488174 456.672821,199.269714 456.448792,190.270905 
	C456.333984,185.658936 456.124329,181.002411 455.377258,176.461502 
	C452.723267,160.329758 448.937988,144.562469 442.472534,129.376419 
	C437.206604,117.007698 430.806915,105.398224 422.089325,95.367661 
	C413.752930,85.775696 404.426056,77.004105 395.113403,68.323700 
	C391.989655,65.411972 387.625244,63.785213 383.733154,61.752556 
	C372.608398,55.942627 361.698242,49.607742 350.182343,44.703522 
	C343.240204,41.747112 335.323883,41.083084 327.849579,39.370480 
	C305.678955,34.290478 283.557648,35.885143 261.590973,40.407372 
	C245.157486,43.790493 230.170273,50.912857 216.058853,59.925858 
	C210.970291,63.175941 205.482605,65.866013 200.670090,69.470009 
	C190.534866,77.060081 182.889099,87.174988 174.553452,96.559639 
	C172.634232,98.720398 171.578506,101.623535 169.900742,104.028290 
	C165.986084,109.639229 160.970718,114.707039 158.139465,120.802269 
	C152.222549,133.540436 145.791214,146.200867 144.837540,160.734253 
	C144.136398,171.419235 142.356384,182.032272 141.612473,192.716034 
	C141.121201,199.771454 144.304108,202.488815 151.526001,202.489182 
	C203.850510,202.491837 256.175018,202.490692 309.499573,202.490677 
M244.640793,399.956421 
	C238.919800,400.582764 235.418396,403.738159 234.322861,409.351929 
	C233.434433,413.904480 235.117767,417.738983 238.389343,420.829102 
	C241.494553,423.762054 245.960022,424.785187 249.010513,422.631317 
	C252.127014,420.430908 255.115463,416.312531 255.707932,412.638397 
	C256.909637,405.186035 253.875458,402.201599 244.640793,399.956421 
M81.789940,314.010773 
	C79.999245,314.757965 78.084938,315.300842 76.443115,316.294128 
	C72.814255,318.489594 70.978989,324.176025 72.463043,327.950409 
	C74.306374,332.638550 80.980461,337.612793 84.394753,336.843262 
	C90.055794,335.567291 93.912041,331.759735 93.998726,327.360565 
	C94.199623,317.165039 94.199883,317.164062 85.415688,314.746368 
	C84.482132,314.489441 83.543236,314.251892 81.789940,314.010773 
M38.984871,362.944275 
	C36.014194,357.990753 31.555490,355.898590 26.024883,357.153870 
	C21.376972,358.208832 19.370157,362.148438 18.303783,366.414825 
	C17.075651,371.328400 19.775457,375.424438 23.030441,378.019745 
	C25.149857,379.709564 29.695080,379.945343 32.452934,378.929810 
	C39.087387,376.486847 41.143749,370.914490 38.984871,362.944275 
M75.068100,246.311615 
	C80.079239,251.522842 85.109833,252.416946 89.588715,248.892395 
	C93.637604,245.706207 95.747185,236.705612 93.335823,232.905273 
	C90.816154,228.934235 80.283630,227.403778 76.128914,230.404968 
	C71.227448,233.945572 70.732529,240.095718 75.068100,246.311615 
M138.018112,462.482422 
	C139.327530,463.144470 140.633453,463.813538 141.946991,464.467316 
	C148.410614,467.684570 156.527206,462.816162 156.996323,455.443268 
	C157.313477,450.458649 154.739090,446.447235 149.950638,444.464661 
	C145.786499,442.740570 139.468246,444.631897 136.217880,448.575439 
	C134.036484,451.222076 134.651108,457.938904 138.018112,462.482422 
z"/>
<path fill="#E1147B" opacity="1.000000" stroke="none" 
	d="
M501.000000,374.535339 
	C499.204468,376.289368 497.408936,377.578735 494.841705,378.955139 
	C404.876648,379.029938 315.683258,379.017212 226.489899,379.012115 
	C225.660797,379.012054 224.831711,379.112915 224.002609,379.166656 
	C219.692932,377.117615 216.525070,374.230377 215.975693,369.104675 
	C215.335236,363.129364 218.965668,359.928772 224.149292,357.049469 
	C314.897430,356.971802 404.864594,356.985809 494.831787,356.999786 
	C496.737274,358.556610 498.642761,360.113403 500.774109,361.335083 
	C501.000000,365.356903 501.000000,369.713806 501.000000,374.535339 
z"/>
<path fill="#E1147B" opacity="1.000000" stroke="none" 
	d="
M1.000000,274.467590 
	C4.089549,273.333618 7.170716,272.624939 10.270517,272.010254 
	C15.549589,270.963440 18.730835,274.029572 20.881680,278.108185 
	C23.234726,282.570190 21.494225,286.784851 18.307117,290.046539 
	C14.793154,293.642761 10.244063,293.828247 5.636384,292.182648 
	C4.256470,291.689819 2.952162,290.985352 1.306606,290.688904 
	C1.000000,285.645081 1.000000,280.290131 1.000000,274.467590 
z"/>
<path fill="#53CBC8" opacity="1.000000" stroke="none" 
	d="
M308.999573,202.490723 
	C256.175018,202.490692 203.850510,202.491837 151.526001,202.489182 
	C144.304108,202.488815 141.121201,199.771454 141.612473,192.716034 
	C142.356384,182.032272 144.136398,171.419235 144.837540,160.734253 
	C145.791214,146.200867 152.222549,133.540436 158.139465,120.802269 
	C160.970718,114.707039 165.986084,109.639229 169.900742,104.028290 
	C171.578506,101.623535 172.634232,98.720398 174.553452,96.559639 
	C182.889099,87.174988 190.534866,77.060081 200.670090,69.470009 
	C205.482605,65.866013 210.970291,63.175941 216.058853,59.925858 
	C230.170273,50.912857 245.157486,43.790493 261.590973,40.407372 
	C283.557648,35.885143 305.678955,34.290478 327.849579,39.370480 
	C335.323883,41.083084 343.240204,41.747112 350.182343,44.703522 
	C361.698242,49.607742 372.608398,55.942627 383.733154,61.752556 
	C387.625244,63.785213 391.989655,65.411972 395.113403,68.323700 
	C404.426056,77.004105 413.752930,85.775696 422.089325,95.367661 
	C430.806915,105.398224 437.206604,117.007698 442.472534,129.376419 
	C448.937988,144.562469 452.723267,160.329758 455.377258,176.461502 
	C456.124329,181.002411 456.333984,185.658936 456.448792,190.270905 
	C456.672821,199.269714 453.421509,202.488174 444.477142,202.488907 
	C399.484619,202.492599 354.492096,202.490646 308.999573,202.490723 
z"/>
<path fill="#E1147B" opacity="1.000000" stroke="none" 
	d="
M482.832031,229.000061 
	C487.944885,230.289948 488.999207,234.488922 488.863037,238.695114 
	C488.704834,243.582230 487.732941,248.546814 480.895355,250.026596 
	C359.209625,250.029922 238.349777,250.017273 117.489929,250.011902 
	C116.660492,250.011856 115.831062,250.112701 115.001625,250.166443 
	C110.479691,249.153305 106.331726,244.747269 106.004890,240.610001 
	C105.516998,234.434097 107.361549,231.556458 114.138245,229.057846 
	C237.564743,228.971664 360.198395,228.985870 482.832031,229.000061 
z"/>
<path fill="#E1147B" opacity="1.000000" stroke="none" 
	d="
M116.001678,336.166351 
	C110.725876,335.064850 106.480034,331.097076 106.006332,326.825623 
	C105.316849,320.608276 106.809647,317.861633 113.139717,315.056610 
	C222.897461,314.971710 331.864532,314.985687 440.831604,314.999634 
	C445.105988,317.313812 447.507416,320.726471 446.988159,325.756744 
	C446.452972,330.941376 443.385590,334.137482 437.891266,336.026917 
	C330.876007,336.029755 224.682800,336.016937 118.489571,336.011536 
	C117.660271,336.011505 116.830978,336.112518 116.001678,336.166351 
z"/>
<path fill="#E1147B" opacity="1.000000" stroke="none" 
	d="
M40.002110,292.166565 
	C34.141380,289.339111 31.730160,284.784546 33.055954,279.045898 
	C34.058437,274.706696 38.287262,272.011719 44.104034,272.000122 
	C46.430836,271.995483 48.757618,271.981995 52.007038,271.965210 
	C136.123840,271.970306 219.318024,271.983154 302.512207,271.988434 
	C303.341217,271.988495 304.170227,271.887634 304.999237,271.833923 
	C305.823364,271.888977 306.665436,272.081390 307.468689,271.976624 
	C312.188354,271.360901 315.986145,272.559570 317.742920,277.385193 
	C319.366119,281.843872 317.325623,288.943756 312.904205,292.025482 
	C222.209641,292.029938 132.349533,292.017181 42.489418,292.011932 
	C41.660320,292.011902 40.831211,292.112793 40.002110,292.166565 
z"/>
<path fill="#E1147B" opacity="1.000000" stroke="none" 
	d="
M438.998810,399.833832 
	C444.495178,399.801605 448.930664,401.166260 451.517303,406.849060 
	C454.651825,413.735565 449.578796,422.599182 441.103333,422.633911 
	C439.763336,422.151184 439.103882,422.017639 438.444397,422.017487 
	C386.866699,422.005127 335.288971,421.997437 283.711304,422.035370 
	C282.473694,422.036285 281.236511,422.555481 279.999115,422.832977 
	C274.766113,423.654327 269.524689,419.260468 269.005188,413.616821 
	C268.345093,406.445343 270.262482,403.286133 278.103394,399.973114 
	C312.009644,399.971985 345.088867,400.008911 378.168091,399.992157 
	C398.445038,399.981903 418.721893,399.889404 438.998810,399.833832 
z"/>
<path fill="#E1147B" opacity="1.000000" stroke="none" 
	d="
M178.001465,465.166290 
	C172.331985,464.288025 169.535492,460.106964 169.257019,455.242889 
	C169.009811,450.924713 170.390015,446.221832 176.144745,444.053101 
	C215.500626,443.971466 254.069839,444.004395 292.639069,443.991577 
	C310.092102,443.985748 327.545166,443.888947 344.998199,443.833435 
	C349.254883,445.732147 353.648132,447.261963 354.069794,453.160339 
	C354.530151,459.600372 351.464294,463.147064 344.895752,465.026917 
	C306.498383,465.027985 268.927582,464.994385 231.356766,465.007812 
	C213.571655,465.014191 195.786560,465.110657 178.001465,465.166290 
z"/>
<path fill="#E1147B" opacity="1.000000" stroke="none" 
	d="
M192.831879,357.000031 
	C202.059265,361.574158 201.230164,375.705139 191.851440,378.949829 
	C178.941635,379.028442 166.814590,378.988983 154.687622,379.004791 
	C123.458862,379.045593 92.230125,379.110840 61.001381,379.166321 
	C56.082554,378.327850 53.286964,374.920837 52.138882,370.566681 
	C50.650043,364.920227 53.114346,360.937408 60.150391,357.048706 
	C104.897865,356.971802 148.864868,356.985931 192.831879,357.000031 
z"/>
<path fill="#E1147B" opacity="1.000000" stroke="none" 
	d="
M245.046570,399.876465 
	C253.875458,402.201599 256.909637,405.186035 255.707932,412.638397 
	C255.115463,416.312531 252.127014,420.430908 249.010513,422.631317 
	C245.960022,424.785187 241.494553,423.762054 238.389343,420.829102 
	C235.117767,417.738983 233.434433,413.904480 234.322861,409.351929 
	C235.418396,403.738159 238.919800,400.582764 245.046570,399.876465 
z"/>
<path fill="#E1147B" opacity="1.000000" stroke="none" 
	d="
M82.198380,314.008057 
	C83.543236,314.251892 84.482132,314.489441 85.415688,314.746368 
	C94.199883,317.164062 94.199623,317.165039 93.998726,327.360565 
	C93.912041,331.759735 90.055794,335.567291 84.394753,336.843262 
	C80.980461,337.612793 74.306374,332.638550 72.463043,327.950409 
	C70.978989,324.176025 72.814255,318.489594 76.443115,316.294128 
	C78.084938,315.300842 79.999245,314.757965 82.198380,314.008057 
z"/>
<path fill="#E1147B" opacity="1.000000" stroke="none" 
	d="
M39.108414,363.328094 
	C41.143749,370.914490 39.087387,376.486847 32.452934,378.929810 
	C29.695080,379.945343 25.149857,379.709564 23.030441,378.019745 
	C19.775457,375.424438 17.075651,371.328400 18.303783,366.414825 
	C19.370157,362.148438 21.376972,358.208832 26.024883,357.153870 
	C31.555490,355.898590 36.014194,357.990753 39.108414,363.328094 
z"/>
<path fill="#E1147B" opacity="1.000000" stroke="none" 
	d="
M74.988716,245.935898 
	C70.732529,240.095718 71.227448,233.945572 76.128914,230.404968 
	C80.283630,227.403778 90.816154,228.934235 93.335823,232.905273 
	C95.747185,236.705612 93.637604,245.706207 89.588715,248.892395 
	C85.109833,252.416946 80.079239,251.522842 74.988716,245.935898 
z"/>
<path fill="#E1147B" opacity="1.000000" stroke="none" 
	d="
M137.729828,462.215454 
	C134.651108,457.938904 134.036484,451.222076 136.217880,448.575439 
	C139.468246,444.631897 145.786499,442.740570 149.950638,444.464661 
	C154.739090,446.447235 157.313477,450.458649 156.996323,455.443268 
	C156.527206,462.816162 148.410614,467.684570 141.946991,464.467316 
	C140.633453,463.813538 139.327530,463.144470 137.729828,462.215454 
z"/>
<path fill="#47704C" opacity="1.000000" stroke="none" 
	d="
M482.590881,228.665649 
	C360.198395,228.985870 237.564743,228.971664 114.466782,228.895432 
	C115.586464,228.556412 117.170380,228.037430 118.754456,228.036942 
	C238.633301,227.999329 358.512146,228.001556 478.390991,228.016296 
	C479.710571,228.016464 481.030151,228.221741 482.590881,228.665649 
z"/>
<path fill="#47704C" opacity="1.000000" stroke="none" 
	d="
M115.310066,250.448471 
	C115.831062,250.112701 116.660492,250.011856 117.489929,250.011902 
	C238.349777,250.017273 359.209625,250.029922 480.533875,250.104294 
	C479.247681,250.443466 477.497253,250.962631 475.746613,250.963196 
	C357.194458,251.001312 238.642303,250.998703 120.090157,250.986649 
	C118.599602,250.986496 117.109055,250.819595 115.310066,250.448471 
z"/>
<path fill="#47704C" opacity="1.000000" stroke="none" 
	d="
M440.590393,314.665344 
	C331.864532,314.985687 222.897461,314.971710 113.466019,314.895752 
	C114.585388,314.556641 116.169037,314.037567 117.752869,314.036987 
	C223.965515,313.998901 330.178192,314.001404 436.390839,314.016296 
	C437.710266,314.016479 439.029724,314.221588 440.590393,314.665344 
z"/>
<path fill="#47704C" opacity="1.000000" stroke="none" 
	d="
M116.310089,336.448425 
	C116.830978,336.112518 117.660271,336.011505 118.489571,336.011536 
	C224.682800,336.016937 330.876007,336.029755 437.533569,336.104248 
	C436.414124,336.443420 434.830414,336.962433 433.246521,336.963013 
	C329.027710,337.001190 224.808899,336.998474 120.590080,336.986359 
	C119.266212,336.986206 117.942368,336.819489 116.310089,336.448425 
z"/>
<path fill="#47704C" opacity="1.000000" stroke="none" 
	d="
M40.310520,292.448608 
	C40.831211,292.112793 41.660320,292.011902 42.489418,292.011932 
	C132.349533,292.017181 222.209641,292.029938 312.534180,292.104248 
	C311.415100,292.443359 309.831726,292.962219 308.248108,292.962921 
	C220.362015,293.001831 132.475906,292.998627 44.589779,292.986328 
	C43.266151,292.986145 41.942547,292.819550 40.310520,292.448608 
z"/>
<path fill="#47704C" opacity="1.000000" stroke="none" 
	d="
M494.590576,356.665436 
	C404.864594,356.985809 314.897430,356.971802 224.465851,356.895813 
	C225.584808,356.556671 227.168045,356.037781 228.751495,356.037079 
	C315.964996,355.998138 403.178528,356.001160 490.392059,356.016327 
	C491.711182,356.016541 493.030273,356.221619 494.590576,356.665436 
z"/>
<path fill="#47704C" opacity="1.000000" stroke="none" 
	d="
M224.310989,379.448669 
	C224.831711,379.112915 225.660797,379.012054 226.489899,379.012115 
	C315.683258,379.017212 404.876648,379.029938 494.534424,379.104187 
	C493.415375,379.443329 491.832062,379.962250 490.248444,379.962952 
	C403.029022,380.001953 315.809601,379.998657 228.590164,379.986359 
	C227.266556,379.986145 225.942963,379.819580 224.310989,379.448669 
z"/>
<path fill="#47704C" opacity="1.000000" stroke="none" 
	d="
M304.690765,271.551758 
	C304.170227,271.887634 303.341217,271.988495 302.512207,271.988434 
	C219.318024,271.983154 136.123840,271.970306 52.465233,271.895874 
	C53.417675,271.556854 54.834438,271.038116 56.251442,271.037445 
	C137.971100,270.999359 219.690781,271.003265 301.410461,271.015839 
	C302.401062,271.015991 303.391693,271.181396 304.690765,271.551758 
z"/>
<path fill="#47704C" opacity="1.000000" stroke="none" 
	d="
M344.689758,443.551453 
	C327.545166,443.888947 310.092102,443.985748 292.639069,443.991577 
	C254.069839,444.004395 215.500626,443.971466 176.467117,443.895233 
	C177.252396,443.556885 178.501785,443.039703 179.751541,443.038879 
	C233.970810,443.002808 288.190125,443.011566 342.409424,443.027069 
	C343.066742,443.027252 343.724030,443.185181 344.689758,443.551453 
z"/>
<path fill="#47704C" opacity="1.000000" stroke="none" 
	d="
M178.309891,465.448395 
	C195.786560,465.110657 213.571655,465.014191 231.356766,465.007812 
	C268.927582,464.994385 306.498383,465.027985 344.533569,465.104370 
	C343.748413,465.442871 342.499054,465.960266 341.249390,465.961121 
	C287.696350,465.997253 234.143265,465.988342 180.590179,465.972809 
	C179.932877,465.972626 179.275604,465.814789 178.309891,465.448395 
z"/>
<path fill="#47704C" opacity="1.000000" stroke="none" 
	d="
M438.690369,399.551697 
	C418.721893,399.889404 398.445038,399.981903 378.168091,399.992157 
	C345.088867,400.008911 312.009644,399.971985 278.466034,399.895660 
	C279.251038,399.557129 280.500275,399.039764 281.749878,399.038879 
	C333.303314,399.002502 384.856781,399.011566 436.410248,399.027161 
	C437.067505,399.027344 437.724731,399.185272 438.690369,399.551697 
z"/>
<path fill="#47704C" opacity="1.000000" stroke="none" 
	d="
M280.463898,422.889923 
	C281.236511,422.555481 282.473694,422.036285 283.711304,422.035370 
	C335.288971,421.997437 386.866699,422.005127 438.444397,422.017487 
	C439.103882,422.017639 439.763336,422.151184 440.711761,422.527832 
	C419.060760,422.888123 397.120880,422.978302 375.180908,422.989502 
	C343.763489,423.005554 312.346100,422.963898 280.463898,422.889923 
z"/>
<path fill="#47704C" opacity="1.000000" stroke="none" 
	d="
M192.590729,356.665649 
	C148.864868,356.985931 104.897865,356.971802 60.466537,356.895569 
	C61.250805,356.557068 62.499157,356.040253 63.748013,356.039062 
	C105.796570,355.998566 147.845184,356.005341 189.893784,356.022064 
	C190.712402,356.022400 191.530975,356.223724 192.590729,356.665649 
z"/>
<path fill="#47704C" opacity="1.000000" stroke="none" 
	d="
M61.309807,379.448425 
	C92.230125,379.110840 123.458862,379.045593 154.687622,379.004791 
	C166.814590,378.988983 178.941635,379.028442 191.532913,379.104675 
	C190.748444,379.443054 189.499924,379.959778 188.250931,379.960938 
	C146.696945,379.998810 105.142937,379.988617 63.588924,379.972809 
	C62.931999,379.972565 62.275131,379.814758 61.309807,379.448425 
z"/>
</svg>